<svg width="32" height="32" viewBox="0 0 32 32" fill="none" xmlns="http://www.w3.org/2000/svg">
<path fill-rule="evenodd" clip-rule="evenodd" d="M27.8696 20.9565C27.8696 22.2609 27.6087 23.0435 27.3478 23.8261C27.087 24.6087 26.6956 25.2609 25.913 25.913C25.2609 26.5652 24.6087 26.9565 23.8261 27.3478C23.0435 27.6087 22.2609 27.8696 20.9565 27.8696C20.4512 27.8696 20.0829 27.8891 19.6317 27.9131C18.9182 27.9511 17.9975 28 16 28C12.7391 28 12.3478 28 11.0435 27.8696C9.73914 27.8696 8.95652 27.6087 8.17391 27.3478C7.3913 27.087 6.73914 26.6957 6.08696 25.913C5.43479 25.2609 5.04348 24.6087 4.65217 23.8261C4.3913 23.0435 4.13044 22.2609 4.13044 20.9565C4.13044 20.4512 4.11086 20.0829 4.08688 19.6317C4.04895 18.9183 4 17.9975 4 16C4 12.7391 4.00001 12.3478 4.13044 11.0435C4.13044 9.73913 4.3913 8.95652 4.65217 8.17391C4.91304 7.3913 5.30436 6.73913 6.08696 6.08696C6.73914 5.43478 7.3913 5.04348 8.17391 4.65217C8.95652 4.3913 9.73914 4.13043 11.0435 4.13043C11.5488 4.13043 11.9171 4.11086 12.3683 4.08687C13.0817 4.04895 14.0025 4 16 4C19.2609 4 19.6522 4 20.9565 4.13043C22.2609 4.13043 23.0435 4.3913 23.8261 4.65217C24.6087 4.91304 25.2609 5.30435 25.913 6.08696C26.5652 6.73913 26.9565 7.3913 27.3478 8.17391C27.6087 8.95652 27.8696 9.73913 27.8696 11.0435C27.8696 11.5488 27.8891 11.9171 27.9131 12.3683C27.9511 13.0817 28 14.0025 28 16C28 19.2609 28 19.6522 27.8696 20.9565ZM25.2614 8.9555C25.0005 8.43376 24.7396 8.04246 24.3483 7.52072C23.957 7.12942 23.5657 6.86855 22.9135 6.60768C22.8801 6.59651 22.8447 6.58439 22.8072 6.57157C22.4068 6.4345 21.7696 6.21637 20.6962 6.21637C20.1845 6.21637 19.8133 6.1963 19.3622 6.1719C18.6633 6.13411 17.7725 6.08594 15.8701 6.08594H15.8701C12.7396 6.08594 12.3483 6.08594 11.044 6.21637C9.97054 6.21637 9.33334 6.4345 8.93294 6.57157C8.89547 6.5844 8.86008 6.59651 8.82659 6.60768C8.30485 6.86855 7.91356 7.12942 7.39182 7.52072C7.00052 7.91202 6.73965 8.30333 6.47878 8.9555C6.46762 8.98899 6.4555 9.02438 6.44268 9.06185L6.44267 9.06187C6.3056 9.46227 6.08747 10.0995 6.08747 11.1729C6.08747 11.6846 6.0674 12.0557 6.043 12.5069C6.00521 13.2058 5.95703 14.0966 5.95703 15.999C5.95703 19.1294 5.95704 19.5207 6.08747 20.8251C6.08747 21.8985 6.3056 22.5357 6.44267 22.9361L6.44269 22.9361C6.45551 22.9736 6.46762 23.009 6.47878 23.0425C6.73965 23.5642 7.00052 23.9555 7.39182 24.4772C7.78313 24.8685 8.17442 25.1294 8.82659 25.3903C8.86007 25.4014 8.89547 25.4136 8.93293 25.4264C9.33333 25.5635 9.97053 25.7816 11.044 25.7816C11.5557 25.7816 11.9268 25.8017 12.378 25.8261C13.0769 25.8639 13.9677 25.912 15.8701 25.912C19.0005 25.912 19.3918 25.912 20.6962 25.7816C21.7696 25.7816 22.4068 25.5635 22.8072 25.4264C22.8447 25.4136 22.8801 25.4014 22.9135 25.3903C23.4353 25.1294 23.8266 24.8685 24.3483 24.4772C24.7396 24.0859 25.0005 23.6946 25.2614 23.0425C25.2725 23.009 25.2847 22.9736 25.2975 22.9361C25.4346 22.5357 25.6527 21.8985 25.6527 20.8251C25.6527 20.3134 25.6727 19.9423 25.6971 19.4912L25.6971 19.4911V19.4911C25.7349 18.7922 25.7831 17.9014 25.7831 15.999V15.9982C25.7831 12.8685 25.7831 12.4771 25.6527 11.1729C25.6527 9.99898 25.5222 9.34681 25.2614 8.9555ZM16.0005 22.1294C12.6092 22.1294 9.87007 19.3903 9.87007 15.999C9.87007 12.6077 12.6092 9.86855 16.0005 9.86855C19.3918 9.86855 22.1309 12.6077 22.1309 15.999C22.1309 19.3903 19.3918 22.1294 16.0005 22.1294ZM22.3918 11.0425C21.6092 11.0425 20.957 10.3903 20.957 9.60768C20.957 8.82507 21.6092 8.17289 22.3918 8.17289C23.1744 8.17289 23.8266 8.82507 23.8266 9.60768C23.8266 10.3903 23.1744 11.0425 22.3918 11.0425ZM19.912 15.999C19.912 18.1601 18.1601 19.912 15.999 19.912C13.8379 19.912 12.0859 18.1601 12.0859 15.999C12.0859 13.8379 13.8379 12.0859 15.999 12.0859C18.1601 12.0859 19.912 13.8379 19.912 15.999Z" fill="white"/>
</svg>
