<svg width="32" height="32" viewBox="0 0 32 32" fill="none" xmlns="http://www.w3.org/2000/svg">
<path fill-rule="evenodd" clip-rule="evenodd" d="M15.7423 22.6095H17.1768C17.1768 22.6095 17.6102 22.5632 17.8314 22.331C18.035 22.1177 18.0285 21.7173 18.0285 21.7173C18.0285 21.7173 18.0005 19.8428 18.8939 19.5667C19.7746 19.2948 20.9055 21.3785 22.1042 22.1796C23.0106 22.786 23.6994 22.653 23.6994 22.653L26.9044 22.6095C26.9044 22.6095 28.5811 22.509 27.7861 21.2252C27.7209 21.1202 27.3231 20.2756 25.403 18.54C23.3934 16.7235 23.6625 17.0173 26.0834 13.8752C27.5577 11.9616 28.1471 10.7933 27.963 10.293C27.7874 9.81639 26.7031 9.94235 26.7031 9.94235L23.0943 9.96425C23.0943 9.96425 22.8268 9.92871 22.6284 10.0442C22.4345 10.1575 22.3097 10.4215 22.3097 10.4215C22.3097 10.4215 21.7386 11.9023 20.9768 13.1616C19.3699 15.8189 18.7274 15.9591 18.4648 15.7941C17.8539 15.4096 18.0064 14.2493 18.0064 13.4249C18.0064 10.8498 18.4074 9.7761 17.2254 9.49815C16.8331 9.40582 16.5444 9.3449 15.5412 9.33506C14.2536 9.32205 13.1637 9.33887 12.5466 9.63331C12.1361 9.82908 11.8194 10.2654 12.0123 10.2904C12.2508 10.3215 12.791 10.4323 13.0774 10.812C13.4472 11.3019 13.4342 12.4023 13.4342 12.4023C13.4342 12.4023 13.6466 15.4337 12.938 15.8103C12.4515 16.0686 11.7842 15.5413 10.3516 13.1305C9.61756 11.8956 9.06334 10.5306 9.06334 10.5306C9.06334 10.5306 8.95647 10.2755 8.76587 10.1391C8.53454 9.97377 8.21133 9.9211 8.21133 9.9211L4.78211 9.94299C4.78211 9.94299 4.26732 9.95695 4.07835 10.1749C3.91023 10.3688 4.06499 10.7698 4.06499 10.7698C4.06499 10.7698 6.74972 16.8866 9.78959 19.9691C12.5769 22.7952 15.7423 22.6095 15.7423 22.6095Z" fill="white"/>
</svg>
