<svg width="20" height="21" viewBox="0 0 20 21" fill="none" xmlns="http://www.w3.org/2000/svg">
<path fill-rule="evenodd" clip-rule="evenodd" d="M0.928436 2.5C0.415675 2.5 0 2.89797 0 3.38889C0 3.87981 0.415675 4.27778 0.928436 4.27778H3.74764L6.66482 13.0203C6.96776 13.6512 7.62667 14.0556 8.35198 14.0556H14.2202C14.9246 14.0556 15.5684 13.674 15.8824 13.0703L17.8029 6.71128C18.4177 5.52941 17.5198 4.14103 16.1407 4.14103H11.3808C10.8681 4.14103 10.4524 4.539 10.4524 5.02991C10.4524 5.52083 10.8681 5.9188 11.3808 5.9188H16.1407L14.2202 12.2778H8.35198L5.43479 3.53526C5.13186 2.90432 4.47294 2.5 3.74764 2.5H0.928436ZM9 17.1667C9 17.903 8.39558 18.5 7.65 18.5C6.90442 18.5 6.3 17.903 6.3 17.1667C6.3 16.4303 6.90442 15.8333 7.65 15.8333C8.39558 15.8333 9 16.4303 9 17.1667ZM14.85 18.5C15.5956 18.5 16.2 17.903 16.2 17.1667C16.2 16.4303 15.5956 15.8333 14.85 15.8333C14.1044 15.8333 13.5 16.4303 13.5 17.1667C13.5 17.903 14.1044 18.5 14.85 18.5Z" fill="#1A1A1A"/>
</svg>
