<svg width="18" height="16" viewBox="0 0 18 16" fill="none" xmlns="http://www.w3.org/2000/svg">
<path fill-rule="evenodd" clip-rule="evenodd" d="M0.928436 0C0.415675 0 0 0.397969 0 0.888889C0 1.37981 0.415675 1.77778 0.928436 1.77778H3.74764L6.66482 10.5203C6.96776 11.1512 7.62667 11.5556 8.35198 11.5556H14.2202C14.9246 11.5556 15.5684 11.174 15.8824 10.5703L17.8029 4.21128C18.4177 3.02941 17.5198 1.64103 16.1407 1.64103H11.3808C10.8681 1.64103 10.4524 2.039 10.4524 2.52991C10.4524 3.02083 10.8681 3.4188 11.3808 3.4188H16.1407L14.2202 9.77778H8.35198L5.43479 1.03526C5.13186 0.404321 4.47294 0 3.74764 0H0.928436ZM9 14.6667C9 15.403 8.39558 16 7.65 16C6.90442 16 6.3 15.403 6.3 14.6667C6.3 13.9303 6.90442 13.3333 7.65 13.3333C8.39558 13.3333 9 13.9303 9 14.6667ZM14.85 16C15.5956 16 16.2 15.403 16.2 14.6667C16.2 13.9303 15.5956 13.3333 14.85 13.3333C14.1044 13.3333 13.5 13.9303 13.5 14.6667C13.5 15.403 14.1044 16 14.85 16Z" fill="white"/>
</svg>
