<svg width="130" height="61" viewBox="0 0 130 61" fill="none" xmlns="http://www.w3.org/2000/svg">
<path d="M75.3917 32.7927H3.10522V59.5524H75.3917V32.7927Z" fill="white" stroke="#5B5BFF" stroke-width="1.13774" stroke-miterlimit="10"/>
<g style="mix-blend-mode:soft-light">
<path d="M25.6662 42.7876L25.6669 42.7868C25.9049 42.5213 26.1442 42.2501 26.3859 41.9763C27.5767 40.6272 28.8245 39.2135 30.2388 38.0925C31.9502 36.7361 33.9298 35.7864 36.3947 35.8659L25.6662 42.7876ZM25.6662 42.7876C24.5344 44.0603 23.3214 45.1261 21.978 45.7324C20.6445 46.3343 19.1716 46.4888 17.4939 45.9214C15.3742 45.2029 12.7063 43.0986 10.7668 40.553C8.81907 37.9965 7.6846 35.1013 8.44519 32.7988C8.58966 32.3729 8.66952 31.9283 8.68261 31.4797H72.8006C72.5217 32.1615 72.2559 32.8454 71.9912 33.5265C71.0702 35.896 70.1624 38.2316 68.7627 40.327L68.7621 40.3278M25.6662 42.7876L68.7621 40.3278M68.7621 40.3278C67.603 42.0762 65.7708 43.4163 63.7057 44.3666C61.6423 45.316 59.3648 45.8674 57.3407 46.0497C53.645 46.3736 51.3683 44.5073 48.6385 42.1365M68.7621 40.3278L48.6385 42.1365M48.6385 42.1365C45.1129 39.0594 41.4068 36.0231 36.3949 35.8659L48.6385 42.1365Z" fill="white"/>
<path d="M25.6662 42.7876L25.6669 42.7868C25.9049 42.5213 26.1442 42.2501 26.3859 41.9763C27.5767 40.6272 28.8245 39.2135 30.2388 38.0925C31.9502 36.7361 33.9298 35.7864 36.3947 35.8659L25.6662 42.7876ZM25.6662 42.7876C24.5344 44.0603 23.3214 45.1261 21.978 45.7324C20.6445 46.3343 19.1716 46.4888 17.4939 45.9214C15.3742 45.2029 12.7063 43.0986 10.7668 40.553C8.81907 37.9965 7.6846 35.1013 8.44519 32.7988C8.58966 32.3729 8.66952 31.9283 8.68261 31.4797H72.8006C72.5217 32.1615 72.2559 32.8454 71.9912 33.5265C71.0702 35.896 70.1624 38.2316 68.7627 40.327L68.7621 40.3278M25.6662 42.7876L68.7621 40.3278M68.7621 40.3278C67.603 42.0762 65.7708 43.4163 63.7057 44.3666C61.6423 45.316 59.3648 45.8674 57.3407 46.0497C53.645 46.3736 51.3683 44.5073 48.6385 42.1365M68.7621 40.3278L48.6385 42.1365M48.6385 42.1365C45.1129 39.0594 41.4068 36.0231 36.3949 35.8659L48.6385 42.1365Z" stroke="#5B5BFF" stroke-width="0.568871"/>
</g>
<path d="M19.7244 46.9907C19.7244 47.1478 19.5971 47.2752 19.44 47.2752C19.2829 47.2752 19.1555 47.1478 19.1555 46.9907C19.1555 46.8337 19.2829 46.7063 19.44 46.7063C19.5971 46.7063 19.7244 46.8337 19.7244 46.9907Z" fill="white" stroke="#5B5BFF" stroke-width="0.568871"/>
<path d="M26.6889 44.6197C26.6889 44.7768 26.5615 44.9041 26.4044 44.9041C26.2474 44.9041 26.12 44.7768 26.12 44.6197C26.12 44.4626 26.2474 44.3353 26.4044 44.3353C26.5615 44.3353 26.6889 44.4626 26.6889 44.6197Z" fill="white" stroke="#5B5BFF" stroke-width="0.568871"/>
<path d="M15.1895 35.2335C15.1895 35.3906 15.0621 35.5179 14.9051 35.5179C14.748 35.5179 14.6206 35.3906 14.6206 35.2335C14.6206 35.0764 14.748 34.949 14.9051 34.949C15.0621 34.949 15.1895 35.0764 15.1895 35.2335Z" fill="white" stroke="#5B5BFF" stroke-width="0.568871"/>
<path d="M9.62284 56.8032C9.62284 56.9603 9.49549 57.0877 9.3384 57.0877C9.18131 57.0877 9.05397 56.9603 9.05397 56.8032C9.05397 56.6462 9.18131 56.5188 9.3384 56.5188C9.49549 56.5188 9.62284 56.6462 9.62284 56.8032Z" fill="white" stroke="#5B5BFF" stroke-width="0.568871"/>
<path d="M7.23661 49.0571C7.23661 49.2142 7.10926 49.3415 6.95217 49.3415C6.79508 49.3415 6.66774 49.2142 6.66774 49.0571C6.66774 48.9 6.79508 48.7727 6.95217 48.7727C7.10926 48.7727 7.23661 48.9 7.23661 49.0571Z" fill="white" stroke="#5B5BFF" stroke-width="0.568871"/>
<path d="M23.6022 53.291C23.6022 53.6743 23.2914 53.985 22.9081 53.985C22.5248 53.985 22.2141 53.6743 22.2141 53.291C22.2141 52.9077 22.5248 52.5969 22.9081 52.5969C23.2914 52.5969 23.6022 52.9077 23.6022 53.291Z" fill="white" stroke="#5B5BFF" stroke-width="0.568871"/>
<path d="M5.7821 52.982C5.7821 53.3653 5.47138 53.676 5.08808 53.676C4.70478 53.676 4.39405 53.3653 4.39405 52.982C4.39405 52.5987 4.70478 52.288 5.08808 52.288C5.47138 52.288 5.7821 52.5987 5.7821 52.982Z" fill="white" stroke="#5B5BFF" stroke-width="0.568871"/>
<path d="M34.9657 49.0571C34.9657 49.4404 34.655 49.7511 34.2717 49.7511C33.8884 49.7511 33.5776 49.4404 33.5776 49.0571C33.5776 48.6738 33.8884 48.3631 34.2717 48.3631C34.655 48.3631 34.9657 48.6738 34.9657 49.0571Z" fill="white" stroke="#5B5BFF" stroke-width="0.568871"/>
<path d="M41.7802 55.0472C41.7802 55.374 41.5153 55.6388 41.1886 55.6388C40.8618 55.6388 40.5969 55.374 40.5969 55.0472C40.5969 54.7205 40.8618 54.4556 41.1886 54.4556C41.5153 54.4556 41.7802 54.7205 41.7802 55.0472Z" fill="white" stroke="#5B5BFF" stroke-width="0.568871"/>
<path d="M71.5146 50.8136C71.5146 51.1403 71.2497 51.4052 70.9229 51.4052C70.5962 51.4052 70.3313 51.1403 70.3313 50.8136C70.3313 50.4868 70.5962 50.2219 70.9229 50.2219C71.2497 50.2219 71.5146 50.4868 71.5146 50.8136Z" fill="white" stroke="#5B5BFF" stroke-width="0.568871"/>
<path d="M69.0536 35.9503C69.0536 36.277 68.7887 36.5419 68.462 36.5419C68.1353 36.5419 67.8704 36.277 67.8704 35.9503C67.8704 35.6235 68.1353 35.3587 68.462 35.3587C68.7887 35.3587 69.0536 35.6235 69.0536 35.9503Z" fill="white" stroke="#5B5BFF" stroke-width="0.568871"/>
<path d="M16.37 53.9073C16.37 54.2341 16.1052 54.4989 15.7784 54.4989C15.4517 54.4989 15.1868 54.2341 15.1868 53.9073C15.1868 53.5806 15.4517 53.3157 15.7784 53.3157C16.1052 53.3157 16.37 53.5806 16.37 53.9073Z" fill="white" stroke="#5B5BFF" stroke-width="0.568871"/>
<path d="M32.893 39.0446C32.893 39.3713 32.6281 39.6362 32.3014 39.6362C31.9746 39.6362 31.7097 39.3713 31.7097 39.0446C31.7097 38.7178 31.9746 38.4529 32.3014 38.4529C32.6281 38.4529 32.893 38.7178 32.893 39.0446Z" fill="white" stroke="#5B5BFF" stroke-width="0.568871"/>
<path d="M53.7548 49.6271C53.7548 49.7559 53.6504 49.8603 53.5216 49.8603C53.3928 49.8603 53.2883 49.7559 53.2883 49.6271C53.2883 49.4982 53.3928 49.3938 53.5216 49.3938C53.6504 49.3938 53.7548 49.4982 53.7548 49.6271Z" fill="white" stroke="#5B5BFF" stroke-width="0.568871"/>
<path d="M64.7079 39.0445C64.7079 39.1733 64.6035 39.2778 64.4747 39.2778C64.3459 39.2778 64.2415 39.1733 64.2415 39.0445C64.2415 38.9157 64.3459 38.8113 64.4747 38.8113C64.6035 38.8113 64.7079 38.9157 64.7079 39.0445Z" fill="white" stroke="#5B5BFF" stroke-width="0.568871"/>
<path d="M60.9345 44.1534C60.9345 44.2822 60.8301 44.3867 60.7013 44.3867C60.5725 44.3867 60.468 44.2822 60.468 44.1534C60.468 44.0246 60.5725 43.9202 60.7013 43.9202C60.8301 43.9202 60.9345 44.0246 60.9345 44.1534Z" fill="white" stroke="#5B5BFF" stroke-width="0.568871"/>
<path d="M29.0243 57.1629C29.0243 57.2918 28.9199 57.3962 28.7911 57.3962C28.6623 57.3962 28.5579 57.2918 28.5579 57.1629C28.5579 57.0341 28.6623 56.9297 28.7911 56.9297C28.9199 56.9297 29.0243 57.0341 29.0243 57.1629Z" fill="white" stroke="#5B5BFF" stroke-width="0.568871"/>
<path d="M6.30865 36.8261C6.30865 36.9549 6.20423 37.0593 6.07541 37.0593C5.9466 37.0593 5.84218 36.9549 5.84218 36.8261C5.84218 36.6973 5.9466 36.5928 6.07541 36.5928C6.20423 36.5928 6.30865 36.6973 6.30865 36.8261Z" fill="white" stroke="#5B5BFF" stroke-width="0.568871"/>
<path d="M63.8759 57.3185C63.8759 57.4473 63.7715 57.5517 63.6427 57.5517C63.5139 57.5517 63.4094 57.4473 63.4094 57.3185C63.4094 57.1896 63.5139 57.0852 63.6427 57.0852C63.7715 57.0852 63.8759 57.1896 63.8759 57.3185Z" fill="white" stroke="#5B5BFF" stroke-width="0.568871"/>
<path d="M68.6923 43.6356C68.6923 43.7644 68.5879 43.8688 68.4591 43.8688C68.3303 43.8688 68.2258 43.7644 68.2258 43.6356C68.2258 43.5068 68.3303 43.4024 68.4591 43.4024C68.5879 43.4024 68.6923 43.5068 68.6923 43.6356Z" fill="white" stroke="#5B5BFF" stroke-width="0.568871"/>
<path d="M73.122 46.9903C73.122 47.1191 73.0176 47.2236 72.8888 47.2236C72.76 47.2236 72.6555 47.1191 72.6555 46.9903C72.6555 46.8615 72.76 46.7571 72.8888 46.7571C73.0176 46.7571 73.122 46.8615 73.122 46.9903Z" fill="white" stroke="#5B5BFF" stroke-width="0.568871"/>
<path d="M49.8251 44.1544C49.8251 44.2832 49.7207 44.3876 49.5919 44.3876C49.4631 44.3876 49.3587 44.2832 49.3587 44.1544C49.3587 44.0256 49.4631 43.9212 49.5919 43.9212C49.7207 43.9212 49.8251 44.0256 49.8251 44.1544Z" fill="white" stroke="#5B5BFF" stroke-width="0.568871"/>
<path d="M19.669 56.9584C19.669 57.0872 19.5646 57.1916 19.4358 57.1916C19.3069 57.1916 19.2025 57.0872 19.2025 56.9584C19.2025 56.8295 19.307 56.7251 19.4358 56.7251C19.5646 56.7251 19.669 56.8295 19.669 56.9584Z" fill="white" stroke="#5B5BFF" stroke-width="0.568871"/>
<path d="M58.1531 48.6983C58.1531 48.8554 58.0258 48.9827 57.8687 48.9827C57.7116 48.9827 57.5842 48.8554 57.5842 48.6983C57.5842 48.5412 57.7116 48.4138 57.8687 48.4138C58.0258 48.4138 58.1531 48.5412 58.1531 48.6983Z" fill="white" stroke="#5B5BFF" stroke-width="0.568871"/>
<path d="M65.2202 48.6976C65.2202 49.1092 64.8865 49.4428 64.475 49.4428C64.0634 49.4428 63.7297 49.1092 63.7297 48.6976C63.7297 48.2861 64.0634 47.9524 64.475 47.9524C64.8865 47.9524 65.2202 48.2861 65.2202 48.6976Z" fill="white" stroke="#5B5BFF" stroke-width="0.568871"/>
<path d="M49.0555 55.9229C49.0555 56.3377 48.7194 56.6739 48.3046 56.6739C47.8899 56.6739 47.5537 56.3377 47.5537 55.9229C47.5537 55.5082 47.8899 55.172 48.3046 55.172C48.7194 55.172 49.0555 55.5082 49.0555 55.9229Z" fill="white" stroke="#5B5BFF" stroke-width="0.568871"/>
<path d="M12.8168 48.0272C12.8168 48.442 12.4806 48.7781 12.0659 48.7781C11.6511 48.7781 11.315 48.442 11.315 48.0272C11.315 47.6125 11.6511 47.2763 12.0659 47.2763C12.4806 47.2763 12.8168 47.6125 12.8168 48.0272Z" fill="white" stroke="#5B5BFF" stroke-width="0.568871"/>
<path d="M74.1574 57.008C74.1574 57.4227 73.8212 57.7589 73.4064 57.7589C72.9917 57.7589 72.6555 57.4227 72.6555 57.008C72.6555 56.5933 72.9917 56.2571 73.4064 56.2571C73.8212 56.2571 74.1574 56.5933 74.1574 57.008Z" fill="white" stroke="#5B5BFF" stroke-width="0.568871"/>
<path d="M37.8723 43.6355C37.8723 44.0188 37.5616 44.3295 37.1783 44.3295C36.795 44.3295 36.4843 44.0188 36.4843 43.6355C36.4843 43.2522 36.795 42.9415 37.1783 42.9415C37.5616 42.9415 37.8723 43.2522 37.8723 43.6355Z" fill="white" stroke="#5B5BFF" stroke-width="0.568871"/>
<path d="M38.3436 36.8261C38.3436 37.2094 38.0329 37.5202 37.6496 37.5202C37.2663 37.5202 36.9556 37.2094 36.9556 36.8261C36.9556 36.4428 37.2663 36.1321 37.6496 36.1321C38.0329 36.1321 38.3436 36.4428 38.3436 36.8261Z" fill="white" stroke="#5B5BFF" stroke-width="0.568871"/>
<path d="M19.1451 40.0214C19.1451 40.4047 18.8344 40.7155 18.4511 40.7155C18.0678 40.7155 17.7571 40.4047 17.7571 40.0214C17.7571 39.6381 18.0678 39.3274 18.4511 39.3274C18.8344 39.3274 19.1451 39.6381 19.1451 40.0214Z" fill="white" stroke="#5B5BFF" stroke-width="0.568871"/>
<path d="M12.7615 42.202C12.7615 42.5853 12.4507 42.896 12.0674 42.896C11.6842 42.896 11.3734 42.5853 11.3734 42.202C11.3734 41.8187 11.6842 41.5079 12.0674 41.5079C12.4507 41.5079 12.7615 41.8187 12.7615 42.202Z" fill="white" stroke="#5B5BFF" stroke-width="0.568871"/>
<path d="M27.0988 40.541C27.0988 40.9243 26.788 41.235 26.4047 41.235C26.0214 41.235 25.7107 40.9243 25.7107 40.541C25.7107 40.1577 26.0214 39.8469 26.4047 39.8469C26.788 39.8469 27.0988 40.1577 27.0988 40.541Z" fill="white" stroke="#5B5BFF" stroke-width="0.568871"/>
<path d="M57.2177 36.1104C57.2177 36.4372 56.9528 36.7021 56.6261 36.7021C56.2993 36.7021 56.0344 36.4372 56.0344 36.1104C56.0344 35.7837 56.2993 35.5188 56.6261 35.5188C56.9528 35.5188 57.2177 35.7837 57.2177 36.1104Z" fill="white" stroke="#5B5BFF" stroke-width="0.568871"/>
<path d="M57.5791 40.2393C57.5791 40.6226 57.2684 40.9333 56.8851 40.9333C56.5018 40.9333 56.1911 40.6226 56.1911 40.2393C56.1911 39.856 56.5018 39.5453 56.8851 39.5453C57.2684 39.5453 57.5791 39.856 57.5791 40.2393Z" fill="white" stroke="#5B5BFF" stroke-width="0.568871"/>
<path d="M41.8832 42.202C41.8832 42.5853 41.5725 42.896 41.1892 42.896C40.8059 42.896 40.4951 42.5853 40.4951 42.202C40.4951 41.8187 40.8059 41.5079 41.1892 41.5079C41.5725 41.5079 41.8832 41.8187 41.8832 42.202Z" fill="white" stroke="#5B5BFF" stroke-width="0.568871"/>
<path d="M50.6451 38.2753C50.6451 38.6586 50.3344 38.9694 49.9511 38.9694C49.5678 38.9694 49.2571 38.6586 49.2571 38.2753C49.2571 37.892 49.5678 37.5813 49.9511 37.5813C50.3344 37.5813 50.6451 37.892 50.6451 38.2753Z" fill="white" stroke="#5B5BFF" stroke-width="0.568871"/>
<path d="M46.4838 49.0566C46.4838 49.3834 46.2189 49.6483 45.8922 49.6483C45.5654 49.6483 45.3005 49.3834 45.3005 49.0566C45.3005 48.7299 45.5654 48.465 45.8922 48.465C46.2189 48.465 46.4838 48.7299 46.4838 49.0566Z" fill="white" stroke="#5B5BFF" stroke-width="0.568871"/>
<path d="M6.66691 43.6339C6.66691 43.9606 6.40203 44.2255 6.07528 44.2255C5.74853 44.2255 5.48365 43.9606 5.48365 43.6339C5.48365 43.3071 5.74853 43.0422 6.07528 43.0422C6.40203 43.0422 6.66691 43.3071 6.66691 43.6339Z" fill="white" stroke="#5B5BFF" stroke-width="0.568871"/>
<path d="M58.567 53.9589C58.567 54.3422 58.2563 54.653 57.873 54.653C57.4897 54.653 57.179 54.3422 57.179 53.9589C57.179 53.5756 57.4897 53.2649 57.873 53.2649C58.2563 53.2649 58.567 53.5756 58.567 53.9589Z" fill="white" stroke="#5B5BFF" stroke-width="0.568871"/>
<path d="M73.0631 40.2392C73.0631 40.6225 72.7524 40.9332 72.3691 40.9332C71.9858 40.9332 71.6751 40.6225 71.6751 40.2392C71.6751 39.8559 71.9858 39.5452 72.3691 39.5452C72.7524 39.5452 73.0631 39.8559 73.0631 40.2392Z" fill="white" stroke="#5B5BFF" stroke-width="0.568871"/>
<path d="M27.0988 35.2333C27.0988 35.6166 26.788 35.9273 26.4047 35.9273C26.0214 35.9273 25.7107 35.6166 25.7107 35.2333C25.7107 34.85 26.0214 34.5393 26.4047 34.5393C26.788 34.5393 27.0988 34.85 27.0988 35.2333Z" fill="white" stroke="#5B5BFF" stroke-width="0.568871"/>
<path d="M28.4459 49.1079C28.4459 49.4912 28.1352 49.8019 27.7519 49.8019C27.3686 49.8019 27.0579 49.4912 27.0579 49.1079C27.0579 48.7246 27.3686 48.4138 27.7519 48.4138C28.1352 48.4138 28.4459 48.7246 28.4459 49.1079Z" fill="white" stroke="#5B5BFF" stroke-width="0.568871"/>
<path d="M35.6151 22.4623C35.6151 22.4623 21.0918 10.8687 20.7164 8.50785C20.3409 6.14704 28.1914 0.333169 30.4384 1.3742C32.6854 2.41524 37.2137 19.6179 37.2137 19.6179L35.6151 22.4623Z" fill="white" stroke="#5B5BFF" stroke-width="1.13774" stroke-linecap="round" stroke-linejoin="round"/>
<path d="M34.8489 16.7496L34.8467 16.7119L34.8347 16.6761L33.5427 12.8167L35.3393 16.4819L35.3397 16.4828C35.3734 16.551 35.3786 16.6298 35.3543 16.7018C35.3299 16.7738 35.2779 16.8332 35.2098 16.8669C35.1416 16.9006 35.0628 16.9059 34.9908 16.8815C34.9341 16.8623 34.8853 16.8261 34.8506 16.7783L34.8489 16.7496Z" fill="white" stroke="#5B5BFF" stroke-width="0.568871"/>
<path d="M32.782 19.0922L32.7405 19.0507L30.1658 16.0122L33.1559 18.6599C33.2126 18.7102 33.247 18.781 33.2515 18.8566C33.2561 18.9323 33.2304 19.0066 33.1801 19.0633C33.1298 19.1201 33.0591 19.1545 32.9834 19.159C32.9101 19.1634 32.838 19.1394 32.782 19.0922Z" fill="white" stroke="#5B5BFF" stroke-width="0.568871"/>
<path d="M34.7948 20.2231L32.9155 16.4616L35.3279 19.9669L35.3282 19.9673C35.3713 20.0297 35.3879 20.1067 35.3742 20.1813C35.3606 20.2559 35.3179 20.3221 35.2555 20.3652C35.1931 20.4083 35.1161 20.4249 35.0415 20.4112C34.9668 20.3976 34.9007 20.3549 34.8576 20.2925L34.8429 20.2713L34.8247 20.253L34.7948 20.2231Z" fill="white" stroke="#5B5BFF" stroke-width="0.568871"/>
<path d="M36.9558 23.8558C36.9558 23.8558 18.3821 24.5783 16.556 23.0366C14.73 21.495 16.8689 11.9664 19.2525 11.2837C21.6361 10.6011 36.2731 20.6587 36.2731 20.6587L36.9558 23.8558Z" fill="white" stroke="#5B5BFF" stroke-width="1.13774" stroke-linecap="round" stroke-linejoin="round"/>
<path d="M32.5584 20.0043L28.9767 17.8695L32.8147 19.4985L32.8154 19.4988C32.8854 19.5283 32.9409 19.5845 32.9695 19.6549C32.9981 19.7253 32.9976 19.8042 32.9681 19.8742C32.9386 19.9443 32.8824 19.9997 32.812 20.0284L32.9192 20.2919L32.812 20.0284C32.7463 20.0551 32.6732 20.0565 32.6069 20.0326L32.5584 20.0043Z" fill="white" stroke="#5B5BFF" stroke-width="0.568871"/>
<path d="M32.5303 23.1492L28.5945 22.5317L32.6014 22.5803V22.5804H32.6048C32.6803 22.5804 32.7526 22.6103 32.806 22.6637C32.8593 22.717 32.8893 22.7894 32.8893 22.8648C32.8893 22.9402 32.8593 23.0126 32.806 23.0659C32.7526 23.1193 32.6803 23.1492 32.6048 23.1492H32.5303Z" fill="white" stroke="#5B5BFF" stroke-width="0.568871"/>
<path d="M32.3313 21.2657L29.7681 20.3828L32.4945 20.7136L32.4949 20.7136C32.5708 20.7227 32.6401 20.7616 32.6874 20.8218C32.7346 20.882 32.7561 20.9585 32.747 21.0344C32.7378 21.1104 32.6989 21.1796 32.6388 21.2269C32.5813 21.2721 32.5088 21.2937 32.4362 21.2876L32.3313 21.2657Z" fill="white" stroke="#5B5BFF" stroke-width="0.568871"/>
<path d="M42.9318 22.2118C42.9318 22.2118 57.4608 10.6182 57.8363 8.25169C58.2117 5.88519 50.3613 0.0826986 48.1086 1.12373C45.8558 2.16477 41.339 19.3674 41.339 19.3674L42.9318 22.2118Z" fill="white" stroke="#5B5BFF" stroke-width="1.13774" stroke-linecap="round" stroke-linejoin="round"/>
<path d="M43.2128 16.198L45.0516 12.4578L43.7344 16.4268L43.7343 16.4268C43.7226 16.4623 43.7039 16.4952 43.6794 16.5235C43.655 16.5518 43.6252 16.575 43.5917 16.5918C43.5583 16.6086 43.5219 16.6186 43.4845 16.6213C43.4472 16.624 43.4097 16.6194 43.3742 16.6076C43.3387 16.5958 43.3059 16.5772 43.2776 16.5527L43.0915 16.7679L43.2775 16.5527C43.2492 16.5282 43.226 16.4984 43.2092 16.465C43.1925 16.4315 43.1824 16.3951 43.1797 16.3578C43.1771 16.3223 43.1812 16.2867 43.1918 16.2528L43.2128 16.198Z" fill="white" stroke="#5B5BFF" stroke-width="0.568871"/>
<path d="M45.8058 18.8078L45.8056 18.808C45.7812 18.8367 45.7515 18.8603 45.718 18.8774L45.8477 19.1305L45.718 18.8774C45.6845 18.8946 45.6479 18.905 45.6104 18.9081C45.5729 18.9111 45.5351 18.9067 45.4993 18.8952L45.4121 19.1659L45.4993 18.8952C45.4635 18.8837 45.4303 18.8652 45.4016 18.8408C45.3729 18.8164 45.3493 18.7867 45.3321 18.7532C45.3149 18.7197 45.3045 18.6831 45.3015 18.6456C45.2984 18.6081 45.3028 18.5703 45.3144 18.5345L45.0461 18.4481L45.3144 18.5345C45.3249 18.5017 45.3413 18.4711 45.3627 18.4442L45.4036 18.4032L48.3877 15.7751L45.8058 18.8078Z" fill="white" stroke="#5B5BFF" stroke-width="0.568871"/>
<path d="M43.2277 19.7133L45.5875 16.2844L43.7118 20.0132L43.7117 20.0132C43.6949 20.0467 43.6716 20.0766 43.6433 20.1011C43.6149 20.1256 43.582 20.1442 43.5464 20.156C43.5108 20.1678 43.4732 20.1724 43.4358 20.1697C43.3985 20.167 43.362 20.1569 43.3285 20.14C43.295 20.1232 43.2652 20.0999 43.2407 20.0716L43.0258 20.2571L43.2407 20.0716C43.2162 20.0432 43.1975 20.0103 43.1857 19.9747C43.1739 19.9391 43.1693 19.9015 43.172 19.8641C43.1746 19.8292 43.1836 19.7951 43.1985 19.7634L43.2277 19.7133Z" fill="white" stroke="#5B5BFF" stroke-width="0.568871"/>
<path d="M41.702 23.9318C41.702 23.9318 46.5602 5.98964 45.4679 3.84499C44.3757 1.70035 34.6082 1.69466 33.4249 3.84499C32.2417 5.99533 38.7553 22.5609 38.7553 22.5609L41.702 23.9318Z" fill="white" stroke="#5B5BFF" stroke-width="1.13774" stroke-linecap="round" stroke-linejoin="round"/>
<path d="M38.3832 18.977L38.3832 18.9515L38.3788 18.9264L37.6547 14.8584L38.9258 18.813L38.9261 18.8137C38.9377 18.8496 38.9422 18.8873 38.9392 18.9248C38.9363 18.9624 38.9259 18.999 38.9088 19.0325C38.8917 19.0661 38.8682 19.0959 38.8395 19.1204C38.8109 19.1448 38.7777 19.1634 38.7419 19.175C38.7061 19.1866 38.6683 19.1911 38.6308 19.1881C38.5932 19.1852 38.5567 19.1748 38.5231 19.1577C38.4896 19.1406 38.4597 19.1171 38.4353 19.0884C38.4138 19.0633 38.3969 19.0346 38.3852 19.0038C38.3838 18.9949 38.3831 18.986 38.3832 18.977Z" fill="white" stroke="#5B5BFF" stroke-width="0.568871"/>
<path d="M41.4447 19.3842L42.3051 15.4606L42.0161 19.5068L42.0161 19.5072C42.0108 19.5828 41.9756 19.6533 41.9184 19.703C41.8612 19.7527 41.7866 19.7777 41.711 19.7724C41.6354 19.7671 41.5649 19.732 41.5152 19.6748C41.4655 19.6175 41.4405 19.5429 41.4458 19.4673L41.4473 19.4461L41.4456 19.425C41.4445 19.4114 41.4442 19.3978 41.4447 19.3842Z" fill="white" stroke="#5B5BFF" stroke-width="0.568871"/>
<path d="M39.6454 18.8663L39.9312 16.1512L40.2172 18.8681C40.2172 18.8681 40.2172 18.8681 40.2172 18.8681C40.2251 18.944 40.2026 19.0198 40.1546 19.0791C40.1066 19.1384 40.0371 19.1761 39.9612 19.1841C39.8854 19.192 39.8095 19.1696 39.7502 19.1216L39.573 19.3404L39.7502 19.1216C39.6912 19.0737 39.6535 19.0045 39.6453 18.929C39.6433 18.9084 39.6433 18.8877 39.6453 18.8671C39.6453 18.8668 39.6453 18.8665 39.6454 18.8663Z" fill="white" stroke="#5B5BFF" stroke-width="0.568871"/>
<path d="M41.6016 22.7594C41.6016 22.7594 60.1638 23.4819 62.0013 21.9345C63.8387 20.3872 61.6884 10.8643 59.3048 10.1817C56.9213 9.49902 42.2387 19.5624 42.2387 19.5624L41.6016 22.7594Z" fill="white" stroke="#5B5BFF" stroke-width="1.13774" stroke-linecap="round" stroke-linejoin="round"/>
<path d="M45.7644 18.3833L49.5915 16.7617L45.9922 18.907L45.981 18.9137L45.9705 18.9213C45.9384 18.9447 45.9016 18.9611 45.8627 18.9695C45.8238 18.9778 45.7835 18.9778 45.7446 18.9696L45.687 19.2432L45.7446 18.9696C45.7057 18.9614 45.6689 18.9451 45.6366 18.9218C45.6044 18.8985 45.5774 18.8687 45.5573 18.8343C45.5373 18.7999 45.5248 18.7616 45.5205 18.7221C45.5162 18.6825 45.5202 18.6425 45.5324 18.6046C45.5445 18.5667 45.5644 18.5317 45.5909 18.502C45.6174 18.4723 45.6498 18.4485 45.6861 18.4321L45.7103 18.4212L45.7321 18.4059L45.7644 18.3833Z" fill="white" stroke="#5B5BFF" stroke-width="0.568871"/>
<path d="M45.9185 21.4897L45.9311 21.4907L45.9438 21.4905L49.9341 21.442L45.9992 22.0571C45.9991 22.0571 45.9991 22.0571 45.999 22.0571C45.9613 22.0629 45.9228 22.0613 45.8856 22.0522C45.8485 22.0432 45.8135 22.0269 45.7826 22.0043L45.618 22.2293L45.7826 22.0043C45.7517 21.9817 45.7256 21.9533 45.7058 21.9206C45.6859 21.8879 45.6726 21.8517 45.6668 21.8139C45.6609 21.7761 45.6626 21.7375 45.6716 21.7003C45.6807 21.6632 45.6969 21.6282 45.7195 21.5973C45.7421 21.5664 45.7706 21.5403 45.8032 21.5205C45.8281 21.5053 45.855 21.4941 45.8831 21.487L45.9185 21.4897Z" fill="white" stroke="#5B5BFF" stroke-width="0.568871"/>
<path d="M46.0282 19.638L46.0953 19.6183L48.7983 19.2904L46.2187 20.1789C46.2186 20.179 46.2185 20.179 46.2184 20.179C46.1465 20.2036 46.0679 20.1986 45.9997 20.1651C45.9314 20.1316 45.8792 20.0724 45.8546 20.0005C45.8299 19.9285 45.8349 19.8497 45.8684 19.7814C45.9011 19.7147 45.9584 19.6633 46.0282 19.638Z" fill="white" stroke="#5B5BFF" stroke-width="0.568871"/>
<path d="M39.4482 23.8828C42.235 23.8828 44.4941 22.5125 44.4941 20.8222C44.4941 19.132 42.235 17.7617 39.4482 17.7617C36.6615 17.7617 34.4023 19.132 34.4023 20.8222C34.4023 22.5125 36.6615 23.8828 39.4482 23.8828Z" fill="white" stroke="#5B5BFF" stroke-width="1.13774" stroke-linecap="round" stroke-linejoin="round"/>
<path d="M43.0975 4.50986C42.1134 3.4802 40.2987 3.41194 38.9732 3.40625C38.0004 3.40625 36.1687 3.40625 35.6055 4.37902V4.41315" stroke="#5B5BFF" stroke-width="0.568871"/>
<path d="M49.4344 2.80025C49.7929 2.97123 50.1506 3.12081 50.514 3.27278C50.6504 3.32983 50.7876 3.38722 50.926 3.44621C51.4941 3.68833 52.0706 3.95318 52.64 4.31903L52.6424 4.32052L52.6423 4.32053C53.3678 4.79667 54.003 5.39781 54.5184 6.09597L49.4344 2.80025ZM49.4344 2.80025C49.9738 2.64764 50.6645 2.76883 51.3846 3.04732C52.1675 3.35008 52.9206 3.8136 53.422 4.17923C53.8134 4.46567 54.5009 4.99013 54.9945 5.57995C55.2417 5.87538 55.4247 6.1693 55.506 6.44204C55.5846 6.7054 55.5665 6.93782 55.4279 7.15084L55.4278 7.15081L55.4249 7.15553C55.4051 7.18728 55.374 7.21034 55.3379 7.22009C55.3047 7.22905 55.2695 7.22615 55.2384 7.21206C55.0847 7.11118 54.9905 6.97275 54.8937 6.78241C54.8722 6.74008 54.8496 6.69263 54.8254 6.64179C54.7464 6.47608 54.6503 6.27432 54.5184 6.09602L49.4344 2.80025Z" fill="white" stroke="#5B5BFF" stroke-width="0.568871"/>
<path d="M59.6383 12.7593L59.643 12.7648L59.6478 12.7699C59.9307 13.0708 60.1424 13.4314 60.2674 13.825C60.3896 14.21 60.4258 14.6171 60.3734 15.0175C60.3476 15.0848 60.3028 15.1435 60.2443 15.1863C60.18 15.2332 60.1025 15.2585 60.0229 15.2585C59.9433 15.2585 59.8657 15.2332 59.8014 15.1863C59.7422 15.143 59.697 15.0834 59.6713 15.0149C59.5707 14.3901 59.338 13.7938 58.9887 13.2658L58.9811 13.2543L58.9725 13.2437C58.7765 13.0018 58.5549 12.793 58.3498 12.5998L58.3475 12.5977C58.1388 12.4012 57.9475 12.221 57.7826 12.0195L57.7764 12.0119L57.7695 12.0046C57.7676 12.0025 57.7661 11.9999 57.7654 11.9971C57.7647 11.9943 57.7647 11.9914 57.7655 11.9886C57.7662 11.9858 57.7677 11.9832 57.7697 11.9811C57.7717 11.979 57.7742 11.9775 57.777 11.9766L57.777 11.9768L57.7869 11.9734C58.0759 11.8727 58.4151 11.9222 58.7602 12.0839C59.1035 12.2448 59.4201 12.5026 59.6383 12.7593Z" fill="white" stroke="#5B5BFF" stroke-width="0.568871"/>
<path d="M27.918 2.85485L27.918 2.85486L27.9206 2.8539C28.3064 2.70889 28.8928 2.6161 29.3877 2.69764C29.6329 2.73803 29.8365 2.81802 29.983 2.93669C30.1226 3.04969 30.2241 3.20811 30.2574 3.44216C30.27 3.56095 30.2379 3.66589 30.195 3.71933C30.1762 3.74272 30.1578 3.75394 30.1392 3.75937C30.1203 3.76488 30.0818 3.77 30.0147 3.74934C29.8834 3.70894 29.7829 3.64433 29.652 3.56016C29.6069 3.53112 29.5581 3.49974 29.5032 3.46623C29.303 3.34404 29.0497 3.2197 28.7074 3.2547L28.6981 3.25566L28.6888 3.25723C28.1495 3.34876 27.6302 3.53343 27.1542 3.80294C27.0259 3.86431 26.8932 3.93651 26.7649 4.00631C26.7466 4.01627 26.7284 4.02618 26.7103 4.036C26.5586 4.11832 26.4109 4.19685 26.263 4.26257C26.0181 4.37135 25.798 4.43298 25.5952 4.42475C26.2287 3.71973 27.0261 3.18029 27.918 2.85485Z" fill="white" stroke="#5B5BFF" stroke-width="0.568871"/>
<path d="M17.4367 16.9148C17.2108 16.2378 17.3188 15.3669 17.7013 14.6605C18.0942 13.9349 18.7402 13.4427 19.5313 13.4738C19.6797 13.4804 19.7739 13.5393 19.8349 13.6139C19.9005 13.6941 19.9381 13.8069 19.9371 13.9255C19.9362 14.0446 19.8967 14.1466 19.838 14.2114C19.7861 14.2686 19.7044 14.3146 19.5658 14.3055C19.1886 14.2714 18.88 14.3732 18.6322 14.5771C18.3944 14.7726 18.2303 15.0476 18.1013 15.3297C17.8626 15.8516 17.6511 16.3668 17.4367 16.9148Z" fill="white" stroke="#5B5BFF" stroke-width="0.568871"/>
<path d="M77.4905 22.0195H1V32.794H77.4905V22.0195Z" fill="white" stroke="#5B5BFF" stroke-width="1.13774" stroke-miterlimit="10"/>
<g style="mix-blend-mode:soft-light">
<path d="M1.28444 25.6774V22.304H77.206V25.6774H1.28444Z" fill="white"/>
<path d="M1.28444 25.6774V22.304H77.206V25.6774H1.28444Z" stroke="#5B5BFF" stroke-width="0.568871"/>
</g>
<path d="M46.4754 32.7927H32.0204V59.5524H46.4754V32.7927Z" fill="white" stroke="#5B5BFF" stroke-width="1.13774" stroke-linecap="round" stroke-linejoin="round"/>
<path d="M48.0537 22.0195H30.4414V32.794H48.0537V22.0195Z" fill="white" stroke="#5B5BFF" stroke-width="1.13774" stroke-linecap="round" stroke-linejoin="round"/>
<path d="M75.0113 16.3789C75.0113 16.3789 64.9848 8.38073 64.7312 6.75574C64.4777 5.13074 69.9174 1.12012 71.4387 1.83465C72.9599 2.54919 76.112 14.4255 76.112 14.4255L75.0113 16.3789Z" fill="white" stroke="#5B5BFF" stroke-width="1.15248" stroke-miterlimit="10"/>
<path d="M74.4095 12.4849L74.4051 12.4765L74.4002 12.4685C74.3907 12.4532 74.3825 12.4373 74.3754 12.4208L73.5505 9.64199L74.9206 12.2135C74.9206 12.2135 74.9206 12.2136 74.9206 12.2136C74.9566 12.2813 74.9641 12.3606 74.9417 12.4339C74.9192 12.5073 74.8685 12.5687 74.8007 12.6047C74.733 12.6407 74.6537 12.6483 74.5803 12.6258C74.507 12.6033 74.4455 12.5526 74.4095 12.4849Z" fill="white" stroke="#5B5BFF" stroke-width="0.576239"/>
<path d="M72.9769 14.1082L71.255 11.9341L73.3913 13.7023L73.3915 13.7026C73.4511 13.7517 73.4886 13.8225 73.496 13.8993C73.5033 13.9762 73.4798 14.0528 73.4306 14.1123C73.3815 14.1718 73.3107 14.2094 73.2339 14.2167C73.157 14.2241 73.0804 14.2006 73.0209 14.1514L73.0209 14.1514L73.0163 14.1477C73.0017 14.1361 72.9884 14.1229 72.9769 14.1082Z" fill="white" stroke="#5B5BFF" stroke-width="0.576239"/>
<path d="M74.4019 14.9268L74.4017 14.9264L73.1827 12.3003L74.8993 14.6305C74.8993 14.6305 74.8993 14.6305 74.8993 14.6305C74.9219 14.6613 74.9382 14.6963 74.9473 14.7334L75.2271 14.6646L74.9473 14.7334C74.9564 14.7705 74.9582 14.809 74.9524 14.8468C74.9466 14.8846 74.9334 14.9208 74.9136 14.9535C74.8938 14.9862 74.8678 15.0147 74.837 15.0373C74.8062 15.06 74.7712 15.0763 74.7341 15.0854C74.697 15.0945 74.6585 15.0962 74.6207 15.0905C74.5829 15.0847 74.5466 15.0715 74.5139 15.0517C74.4814 15.032 74.453 15.0061 74.4304 14.9754C74.4193 14.9602 74.4098 14.9439 74.4019 14.9268Z" fill="white" stroke="#5B5BFF" stroke-width="0.576239"/>
<path d="M75.9344 17.3414C75.9344 17.3414 63.1188 17.8427 61.8569 16.7651C60.5949 15.6876 62.0701 9.13572 63.7354 8.6632C65.4007 8.19069 75.4792 15.1344 75.4792 15.1344L75.9344 17.3414Z" fill="white" stroke="#5B5BFF" stroke-width="1.15248" stroke-miterlimit="10"/>
<path d="M72.8568 14.764L70.4292 13.2108L73.1253 14.2558C73.1254 14.2558 73.1255 14.2559 73.1256 14.2559C73.161 14.2698 73.1933 14.2905 73.2208 14.3168C73.2483 14.3432 73.2703 14.3747 73.2856 14.4096C73.3009 14.4445 73.3092 14.4821 73.31 14.5202C73.3108 14.5584 73.304 14.5962 73.2902 14.6318C73.2763 14.6673 73.2556 14.6997 73.2292 14.7272L73.4371 14.9267L73.2292 14.7272C73.2028 14.7547 73.1712 14.7767 73.1363 14.792L73.252 15.0559L73.1363 14.792C73.1014 14.8073 73.0638 14.8156 73.0257 14.8164C72.9922 14.8171 72.9588 14.812 72.9271 14.8013L72.8568 14.764Z" fill="white" stroke="#5B5BFF" stroke-width="0.576239"/>
<path d="M72.8801 16.9454L70.1823 16.4311L72.9449 16.3733C73.0205 16.374 73.0927 16.4043 73.1462 16.4577C73.2002 16.5117 73.2306 16.585 73.2306 16.6614C73.2306 16.7379 73.2002 16.8111 73.1462 16.8652C73.0938 16.9176 73.0233 16.9477 72.9495 16.9495L72.8801 16.9454Z" fill="white" stroke="#5B5BFF" stroke-width="0.576239"/>
<path d="M72.8386 15.6633L72.8307 15.6627L72.8227 15.6626C72.7947 15.662 72.767 15.6578 72.7401 15.6499L70.9777 14.9484L72.8819 15.0855C72.882 15.0855 72.8822 15.0855 72.8823 15.0855C72.9201 15.0884 72.957 15.0987 72.9908 15.1158C73.0248 15.1329 73.0551 15.1566 73.0799 15.1854L73.2983 14.9975L73.0799 15.1854C73.1047 15.2143 73.1236 15.2477 73.1355 15.2839C73.1474 15.32 73.152 15.3581 73.1492 15.3961C73.1463 15.434 73.136 15.471 73.1189 15.505C73.1017 15.539 73.0781 15.5692 73.0492 15.594C73.0204 15.6189 72.9869 15.6378 72.9508 15.6496C72.9147 15.6615 72.8765 15.6662 72.8386 15.6633Z" fill="white" stroke="#5B5BFF" stroke-width="0.576239"/>
<path d="M80.0577 16.206C80.0577 16.206 90.0842 8.20785 90.3378 6.57709C90.5913 4.94633 85.1804 0.935706 83.6303 1.65601C82.0802 2.3763 78.957 14.2468 78.957 14.2468L80.0577 16.206Z" fill="white" stroke="#5B5BFF" stroke-width="1.15248" stroke-miterlimit="10"/>
<path d="M80.1636 12.029L81.5267 9.47061L80.6978 12.2629C80.687 12.2993 80.6691 12.3332 80.6452 12.3626C80.6213 12.3921 80.5919 12.4166 80.5585 12.4347C80.5252 12.4527 80.4886 12.4641 80.4508 12.468C80.4131 12.472 80.3749 12.4684 80.3386 12.4576C80.3022 12.4468 80.2683 12.429 80.2388 12.4051C80.2094 12.3812 80.1849 12.3517 80.1668 12.3184C80.1487 12.285 80.1374 12.2484 80.1334 12.2107C80.1295 12.1729 80.133 12.1348 80.1438 12.0984L80.1469 12.0881L80.1492 12.0775C80.1528 12.061 80.1576 12.0448 80.1636 12.029Z" fill="white" stroke="#5B5BFF" stroke-width="0.576239"/>
<path d="M81.6749 13.5302L81.6749 13.5302L81.6759 13.5294L83.8122 11.7612L82.0904 13.9353L82.0903 13.9354C82.0664 13.9655 82.0369 13.9906 82.0034 14.0093C81.9699 14.028 81.933 14.04 81.8948 14.0444C81.8567 14.0489 81.8181 14.0457 81.7811 14.0353C81.7442 14.0248 81.7097 14.0071 81.6796 13.9833C81.6495 13.9595 81.6244 13.93 81.6057 13.8964L81.354 14.0368L81.6057 13.8964C81.587 13.8629 81.5751 13.826 81.5706 13.7879C81.5662 13.7498 81.5693 13.7111 81.5798 13.6742C81.59 13.6381 81.6071 13.6043 81.6302 13.5746C81.6436 13.5584 81.6586 13.5436 81.6749 13.5302Z" fill="white" stroke="#5B5BFF" stroke-width="0.576239"/>
<path d="M80.1538 14.477L80.1619 14.4677L80.1692 14.4578L81.8785 12.1316L80.6668 14.7421L80.6668 14.7421L80.6655 14.745C80.6335 14.8159 80.5746 14.8713 80.5018 14.8988L80.6038 15.1683L80.5018 14.8988C80.429 14.9263 80.3483 14.9238 80.2773 14.8918C80.2064 14.8598 80.151 14.8009 80.1235 14.7281L79.857 14.829L80.1235 14.7281C80.0975 14.6593 80.0983 14.5833 80.1256 14.5152C80.1339 14.5017 80.1434 14.4889 80.1538 14.477Z" fill="white" stroke="#5B5BFF" stroke-width="0.576239"/>
<path d="M79.2091 17.3931C79.2091 17.3931 82.5628 5.0155 81.8022 3.56338C81.0415 2.11126 74.311 2.06516 73.4813 3.56338C72.6515 5.0616 77.1577 16.4596 77.1577 16.4596L79.2091 17.3931Z" fill="white" stroke="#5B5BFF" stroke-width="1.15248" stroke-miterlimit="10"/>
<path d="M76.8272 13.9693L76.4123 11.0935L77.3952 13.8358L77.3953 13.8362C77.4083 13.8721 77.414 13.9102 77.4122 13.9483C77.4104 13.9864 77.4011 14.0238 77.3848 14.0583C77.3686 14.0929 77.3457 14.1238 77.3174 14.1495C77.2892 14.1752 77.2562 14.1951 77.2203 14.208C77.1844 14.2209 77.1463 14.2266 77.1081 14.2248C77.07 14.223 77.0326 14.2137 76.9981 14.1975C76.9636 14.1812 76.9326 14.1583 76.9069 14.1301C76.8812 14.1018 76.8614 14.0688 76.8485 14.0329L76.8452 14.0239L76.8414 14.0152C76.835 14.0004 76.8302 13.985 76.8272 13.9693Z" fill="white" stroke="#5B5BFF" stroke-width="0.576239"/>
<path d="M78.9338 14.2638L79.607 11.5852L79.5055 14.3574L79.5055 14.3579C79.5028 14.4344 79.4699 14.5066 79.4139 14.5588C79.358 14.611 79.2836 14.6388 79.2071 14.6361C79.1307 14.6334 79.0584 14.6005 79.0062 14.5445L78.7955 14.741L79.0062 14.5445C78.9541 14.4886 78.9262 14.4142 78.9289 14.3377L78.9292 14.3298L78.929 14.3219C78.9286 14.3024 78.9302 14.2829 78.9338 14.2638Z" fill="white" stroke="#5B5BFF" stroke-width="0.576239"/>
<path d="M77.6976 13.9183L77.9887 12.0347L78.2802 13.9207L78.2802 13.9208C78.2862 13.9591 78.2845 13.9982 78.2753 14.0358C78.2661 14.0735 78.2497 14.1089 78.2268 14.1402C78.2039 14.1715 78.1751 14.1979 78.142 14.2181C78.1089 14.2382 78.0722 14.2516 78.0339 14.2575C77.9956 14.2635 77.9565 14.2618 77.9189 14.2526C77.8812 14.2435 77.8458 14.227 77.8145 14.2041L77.6447 14.4362L77.8145 14.2041C77.7832 14.1812 77.7568 14.1524 77.7367 14.1193C77.7169 14.0868 77.7036 14.0508 77.6975 14.0133C77.6933 13.9818 77.6933 13.9498 77.6976 13.9183Z" fill="white" stroke="#5B5BFF" stroke-width="0.576239"/>
<path d="M79.1406 16.5822C79.1406 16.5822 91.9562 17.0835 93.2182 16.0059C94.4801 14.9284 92.9992 8.3823 91.3511 7.90979C89.7031 7.43727 79.5901 14.381 79.5901 14.381L79.1406 16.5822Z" fill="white" stroke="#5B5BFF" stroke-width="1.15248" stroke-miterlimit="10"/>
<path d="M82.1951 14.0056L82.1948 14.0058C82.1628 14.0263 82.127 14.0403 82.0895 14.0469C82.052 14.0536 82.0136 14.0528 81.9765 14.0446C81.9393 14.0365 81.9041 14.021 81.8729 13.9993C81.8417 13.9775 81.8151 13.9498 81.7947 13.9177C81.7742 13.8856 81.7602 13.8499 81.7535 13.8124C81.7469 13.7749 81.7477 13.7365 81.7558 13.6994C81.764 13.6622 81.7794 13.627 81.8012 13.5958C81.8185 13.5711 81.8394 13.5493 81.8633 13.5311L81.9355 13.5031L81.9358 13.503L84.6092 12.4668L82.1951 14.0056Z" fill="white" stroke="#5B5BFF" stroke-width="0.576239"/>
<path d="M82.1039 15.6139L82.1039 15.614L82.1116 15.6141L84.8777 15.672L82.1618 16.1897C82.1233 16.1971 82.0837 16.1967 82.0453 16.1887C82.007 16.1808 81.9706 16.1653 81.9382 16.1433L81.776 16.3814L81.9382 16.1433C81.9058 16.1212 81.878 16.093 81.8565 16.0602C81.835 16.0274 81.8202 15.9908 81.8129 15.9523C81.8056 15.9138 81.8059 15.8742 81.8139 15.8358C81.8219 15.7974 81.8373 15.761 81.8594 15.7286C81.8814 15.6962 81.9096 15.6685 81.9424 15.647C81.9672 15.6307 81.9943 15.6183 82.0227 15.61L82.1039 15.6139Z" fill="white" stroke="#5B5BFF" stroke-width="0.576239"/>
<path d="M82.1838 14.3328L82.1838 14.3328L82.1898 14.3324L84.088 14.1958L82.3107 14.9009L82.3102 14.9011C82.2742 14.9155 82.2357 14.9226 82.197 14.9221C82.1582 14.9216 82.12 14.9134 82.0844 14.8981C82.0488 14.8828 82.0165 14.8607 81.9895 14.8329C81.9625 14.8052 81.9412 14.7724 81.9268 14.7364C81.9124 14.7004 81.9053 14.6619 81.9058 14.6232C81.9063 14.5844 81.9145 14.5462 81.9298 14.5106C81.9451 14.475 81.9672 14.4427 81.995 14.4157C82.0227 14.3886 82.0555 14.3673 82.0915 14.353L82.0916 14.353C82.121 14.3412 82.1522 14.3344 82.1838 14.3328Z" fill="white" stroke="#5B5BFF" stroke-width="0.576239"/>
<path d="M77.6485 17.3582C79.5707 17.3582 81.1289 16.414 81.1289 15.2492C81.1289 14.0844 79.5707 13.1401 77.6485 13.1401C75.7262 13.1401 74.168 14.0844 74.168 15.2492C74.168 16.414 75.7262 17.3582 77.6485 17.3582Z" fill="white" stroke="#5B5BFF" stroke-width="1.15248" stroke-miterlimit="10"/>
<path d="M80.175 3.9911C79.4893 3.29962 78.2446 3.23623 77.3284 3.23047C76.66 3.23047 75.3922 3.23047 75.0234 3.90467" stroke="#5B5BFF" stroke-width="0.576239"/>
<path d="M85.8579 3.07222C86.3887 3.27705 86.9029 3.59176 87.2466 3.841C87.5088 4.03912 87.9719 4.39227 88.3069 4.78699C88.4753 4.9854 88.5949 5.17573 88.6478 5.34519C88.6978 5.50521 88.6854 5.63181 88.6113 5.74584L88.6112 5.74579L88.6074 5.75209C88.6058 5.75464 88.6033 5.75648 88.6004 5.75722C88.5979 5.75786 88.5953 5.75764 88.5929 5.75662C88.4973 5.69833 88.4382 5.61889 88.3733 5.49527C88.3594 5.46869 88.3437 5.43649 88.3263 5.40058C88.2715 5.28774 88.1989 5.13825 88.1049 5.01118L88.1049 5.01117L88.1028 5.00839C87.738 4.52773 87.2919 4.11465 86.7846 3.78787L86.7753 3.78188L86.7656 3.77661C86.1555 3.44691 85.5325 3.14193 84.898 2.86237C85.1801 2.86113 85.5083 2.93733 85.8579 3.07222Z" fill="white" stroke="#5B5BFF" stroke-width="0.576239"/>
<path d="M91.5056 9.73254L91.5142 9.74362L91.5238 9.75381C91.7123 9.95427 91.8529 10.195 91.9347 10.4578C92.014 10.7123 92.0362 10.9811 91.9999 11.245C91.9883 11.2725 91.9694 11.2965 91.9452 11.3144C91.9165 11.3356 91.8817 11.347 91.846 11.347C91.8102 11.347 91.7755 11.3356 91.7467 11.3144C91.7222 11.2962 91.7031 11.2718 91.6915 11.2438C91.62 10.8006 91.4551 10.3775 91.2077 10.0027L91.2008 9.99228L91.193 9.98249C91.057 9.81083 90.8993 9.66182 90.7575 9.52866C90.7538 9.52517 90.7501 9.5217 90.7464 9.51823C90.6447 9.42264 90.5513 9.3349 90.4671 9.24519C90.6361 9.23921 90.8052 9.26738 90.964 9.32872C91.1781 9.41135 91.3653 9.55101 91.5056 9.73254Z" fill="white" stroke="#5B5BFF" stroke-width="0.576239"/>
<path d="M71.2188 3.2681L71.2188 3.26811L71.2191 3.27001C71.2227 3.29537 71.2212 3.31974 71.2163 3.33943C71.2131 3.3524 71.2092 3.36083 71.2064 3.36565C71.1999 3.3653 71.1886 3.36373 71.1717 3.35828C71.0935 3.33321 71.0372 3.29705 70.9536 3.24329C70.92 3.22168 70.8819 3.19723 70.8363 3.16952C70.6909 3.08131 70.4956 2.98526 70.231 3.01172L70.2194 3.01287L70.208 3.01495C69.8283 3.08409 69.4633 3.21828 69.1292 3.41156C69.0371 3.45477 68.9424 3.50569 68.8535 3.55345C68.8437 3.55874 68.8339 3.56399 68.8243 3.56918C68.7195 3.62539 68.6203 3.67769 68.5216 3.72139C68.4612 3.74812 68.4046 3.76992 68.3513 3.78661C68.7443 3.4064 69.2138 3.11191 69.7302 2.92373L69.7302 2.92374L69.733 2.92269C69.9839 2.82827 70.3713 2.76979 70.6941 2.82533C70.8532 2.85268 70.9773 2.90439 71.0625 2.97409C71.1415 3.03872 71.1998 3.12845 71.2188 3.2681Z" fill="white" stroke="#5B5BFF" stroke-width="0.576239"/>
<path d="M63.9134 10.2695L63.9145 10.2696C63.9872 10.2722 64.026 10.2994 64.0512 10.3309C64.0814 10.3685 64.1021 10.4268 64.1015 10.492C64.1009 10.5581 64.0791 10.6042 64.0588 10.6263C64.0467 10.6395 64.024 10.6589 63.9598 10.6522C63.6807 10.6153 63.4388 10.6758 63.2408 10.8311C63.0542 10.9775 62.9326 11.1883 62.8417 11.4014C62.7199 11.6871 62.6068 11.9706 62.4975 12.2457C62.4476 11.8589 62.532 11.4159 62.7356 11.0402C62.9962 10.5591 63.4146 10.2494 63.9134 10.2695Z" fill="white" stroke="#5B5BFF" stroke-width="0.576239"/>
<path d="M102.391 23.9336H52.5117V59.6777H102.391V23.9336Z" fill="white" stroke="#5B5BFF" stroke-width="1.15248" stroke-miterlimit="10"/>
<g style="mix-blend-mode:soft-light">
<path d="M55.4755 33.7527H55.4755L55.4754 33.7479C55.4675 33.2686 55.3092 32.804 55.0229 32.4195C54.7795 32.0926 54.4539 31.8377 54.081 31.6796V24.2217H100.756V30.5692C100.632 30.7514 100.507 30.9353 100.382 31.1201C98.149 34.4082 95.7005 38.0143 91.0703 38.8156C88.6572 39.1709 86.1936 38.7522 84.0334 37.6197C82.536 36.7726 81.4205 35.3803 80.3558 34.0515C80.1372 33.7786 79.9207 33.5084 79.7035 33.2462L79.7035 33.2462L79.7006 33.2428C78.842 32.2382 77.7584 30.9875 76.4595 30.2653C75.8043 29.901 75.0846 29.6649 74.3033 29.6655C73.5203 29.6661 72.6964 29.9044 71.8351 30.456L71.8349 30.4561C71.1382 30.9031 70.6295 31.5026 70.2125 32.1251C69.9383 32.5345 69.6934 32.9714 69.4636 33.3816C69.3499 33.5843 69.24 33.7805 69.132 33.9635L69.1318 33.9634L69.1263 33.9736C68.37 35.3813 67.4169 36.674 66.2957 37.8126C64.6641 39.4038 62.2797 40.4975 59.9109 39.4808L59.9105 39.4806C58.8135 39.0116 57.6977 38.0752 56.8554 36.9915C56.0089 35.9023 55.4755 34.7124 55.4755 33.7527Z" fill="white"/>
<path d="M55.4755 33.7527H55.4755L55.4754 33.7479C55.4675 33.2686 55.3092 32.804 55.0229 32.4195C54.7795 32.0926 54.4539 31.8377 54.081 31.6796V24.2217H100.756V30.5692C100.632 30.7514 100.507 30.9353 100.382 31.1201C98.149 34.4082 95.7005 38.0143 91.0703 38.8156C88.6572 39.1709 86.1936 38.7522 84.0334 37.6197C82.536 36.7726 81.4205 35.3803 80.3558 34.0515C80.1372 33.7786 79.9207 33.5084 79.7035 33.2462L79.7035 33.2462L79.7006 33.2428C78.842 32.2382 77.7584 30.9875 76.4595 30.2653C75.8043 29.901 75.0846 29.6649 74.3033 29.6655C73.5203 29.6661 72.6964 29.9044 71.8351 30.456L71.8349 30.4561C71.1382 30.9031 70.6295 31.5026 70.2125 32.1251C69.9383 32.5345 69.6934 32.9714 69.4636 33.3816C69.3499 33.5843 69.24 33.7805 69.132 33.9635L69.1318 33.9634L69.1263 33.9736C68.37 35.3813 67.4169 36.674 66.2957 37.8126C64.6641 39.4038 62.2797 40.4975 59.9109 39.4808L59.9105 39.4806C58.8135 39.0116 57.6977 38.0752 56.8554 36.9915C56.0089 35.9023 55.4755 34.7124 55.4755 33.7527Z" stroke="#5B5BFF" stroke-width="0.576239"/>
</g>
<path d="M53.9995 23.8645C53.9995 24.0491 53.8499 24.1987 53.6653 24.1987C53.4807 24.1987 53.3311 24.0491 53.3311 23.8645C53.3311 23.6799 53.4807 23.5303 53.6653 23.5303C53.8499 23.5303 53.9995 23.6799 53.9995 23.8645Z" fill="white" stroke="#5B5BFF" stroke-width="0.576239"/>
<path d="M59.0308 23.8645C59.0308 24.0491 58.8811 24.1987 58.6966 24.1987C58.512 24.1987 58.3623 24.0491 58.3623 23.8645C58.3623 23.6799 58.512 23.5303 58.6966 23.5303C58.8811 23.5303 59.0308 23.6799 59.0308 23.8645Z" fill="white" stroke="#5B5BFF" stroke-width="0.576239"/>
<path d="M64.0781 23.8645C64.0781 24.0491 63.9285 24.1987 63.7439 24.1987C63.5593 24.1987 63.4097 24.0491 63.4097 23.8645C63.4097 23.6799 63.5593 23.5303 63.7439 23.5303C63.9285 23.5303 64.0781 23.6799 64.0781 23.8645Z" fill="white" stroke="#5B5BFF" stroke-width="0.576239"/>
<path d="M69.1089 23.8645C69.1089 24.0491 68.9593 24.1987 68.7747 24.1987C68.5901 24.1987 68.4405 24.0491 68.4405 23.8645C68.4405 23.6799 68.5901 23.5303 68.7747 23.5303C68.9593 23.5303 69.1089 23.6799 69.1089 23.8645Z" fill="white" stroke="#5B5BFF" stroke-width="0.576239"/>
<path d="M74.1519 23.8645C74.1519 24.0491 74.0022 24.1987 73.8177 24.1987C73.6331 24.1987 73.4834 24.0491 73.4834 23.8645C73.4834 23.6799 73.6331 23.5303 73.8177 23.5303C74.0022 23.5303 74.1519 23.6799 74.1519 23.8645Z" fill="white" stroke="#5B5BFF" stroke-width="0.576239"/>
<path d="M79.1909 23.8645C79.1909 24.0491 79.0413 24.1987 78.8567 24.1987C78.6721 24.1987 78.5225 24.0491 78.5225 23.8645C78.5225 23.6799 78.6721 23.5303 78.8567 23.5303C79.0413 23.5303 79.1909 23.6799 79.1909 23.8645Z" fill="white" stroke="#5B5BFF" stroke-width="0.576239"/>
<path d="M84.2339 23.8645C84.2339 24.0491 84.0843 24.1987 83.8997 24.1987C83.7151 24.1987 83.5655 24.0491 83.5655 23.8645C83.5655 23.6799 83.7151 23.5303 83.8997 23.5303C84.0843 23.5303 84.2339 23.6799 84.2339 23.8645Z" fill="white" stroke="#5B5BFF" stroke-width="0.576239"/>
<path d="M89.2612 23.8645C89.2612 24.0491 89.1116 24.1987 88.927 24.1987C88.7424 24.1987 88.5928 24.0491 88.5928 23.8645C88.5928 23.6799 88.7424 23.5303 88.927 23.5303C89.1116 23.5303 89.2612 23.6799 89.2612 23.8645Z" fill="white" stroke="#5B5BFF" stroke-width="0.576239"/>
<path d="M94.3006 23.8645C94.3006 24.0491 94.1509 24.1987 93.9663 24.1987C93.7817 24.1987 93.6321 24.0491 93.6321 23.8645C93.6321 23.6799 93.7817 23.5303 93.9663 23.5303C94.1509 23.5303 94.3006 23.6799 94.3006 23.8645Z" fill="white" stroke="#5B5BFF" stroke-width="0.576239"/>
<path d="M99.3434 23.8645C99.3434 24.0491 99.1938 24.1987 99.0092 24.1987C98.8246 24.1987 98.675 24.0491 98.675 23.8645C98.675 23.6799 98.8246 23.5303 99.0092 23.5303C99.1938 23.5303 99.3434 23.6799 99.3434 23.8645Z" fill="white" stroke="#5B5BFF" stroke-width="0.576239"/>
<path d="M56.0503 26.3606C56.0503 26.5452 55.9007 26.6948 55.7161 26.6948C55.5315 26.6948 55.3819 26.5452 55.3819 26.3606C55.3819 26.176 55.5315 26.0264 55.7161 26.0264C55.9007 26.0264 56.0503 26.176 56.0503 26.3606Z" fill="white" stroke="#5B5BFF" stroke-width="0.576239"/>
<path d="M61.0933 26.3606C61.0933 26.5452 60.9436 26.6948 60.7591 26.6948C60.5745 26.6948 60.4248 26.5452 60.4248 26.3606C60.4248 26.176 60.5745 26.0264 60.7591 26.0264C60.9436 26.0264 61.0933 26.176 61.0933 26.3606Z" fill="white" stroke="#5B5BFF" stroke-width="0.576239"/>
<path d="M66.1284 26.3606C66.1284 26.5452 65.9788 26.6948 65.7942 26.6948C65.6096 26.6948 65.46 26.5452 65.46 26.3606C65.46 26.176 65.6096 26.0264 65.7942 26.0264C65.9788 26.0264 66.1284 26.176 66.1284 26.3606Z" fill="white" stroke="#5B5BFF" stroke-width="0.576239"/>
<path d="M71.1558 26.3606C71.1558 26.5452 71.0061 26.6948 70.8216 26.6948C70.637 26.6948 70.4873 26.5452 70.4873 26.3606C70.4873 26.176 70.637 26.0264 70.8216 26.0264C71.0061 26.0264 71.1558 26.176 71.1558 26.3606Z" fill="white" stroke="#5B5BFF" stroke-width="0.576239"/>
<path d="M76.2027 26.3606C76.2027 26.5452 76.053 26.6948 75.8684 26.6948C75.6838 26.6948 75.5342 26.5452 75.5342 26.3606C75.5342 26.176 75.6838 26.0264 75.8684 26.0264C76.053 26.0264 76.2027 26.176 76.2027 26.3606Z" fill="white" stroke="#5B5BFF" stroke-width="0.576239"/>
<path d="M81.2417 26.3606C81.2417 26.5452 81.0921 26.6948 80.9075 26.6948C80.7229 26.6948 80.5733 26.5452 80.5733 26.3606C80.5733 26.176 80.7229 26.0264 80.9075 26.0264C81.0921 26.0264 81.2417 26.176 81.2417 26.3606Z" fill="white" stroke="#5B5BFF" stroke-width="0.576239"/>
<path d="M86.2808 26.3606C86.2808 26.5452 86.1311 26.6948 85.9466 26.6948C85.762 26.6948 85.6123 26.5452 85.6123 26.3606C85.6123 26.176 85.762 26.0264 85.9466 26.0264C86.1311 26.0264 86.2808 26.176 86.2808 26.3606Z" fill="white" stroke="#5B5BFF" stroke-width="0.576239"/>
<path d="M91.3237 26.3606C91.3237 26.5452 91.1741 26.6948 90.9895 26.6948C90.8049 26.6948 90.6553 26.5452 90.6553 26.3606C90.6553 26.176 90.8049 26.0264 90.9895 26.0264C91.1741 26.0264 91.3237 26.176 91.3237 26.3606Z" fill="white" stroke="#5B5BFF" stroke-width="0.576239"/>
<path d="M96.3628 26.3606C96.3628 26.5452 96.2132 26.6948 96.0286 26.6948C95.844 26.6948 95.6944 26.5452 95.6944 26.3606C95.6944 26.176 95.844 26.0264 96.0286 26.0264C96.2132 26.0264 96.3628 26.176 96.3628 26.3606Z" fill="white" stroke="#5B5BFF" stroke-width="0.576239"/>
<path d="M101.398 26.3606C101.398 26.5452 101.248 26.6948 101.064 26.6948C100.879 26.6948 100.73 26.5452 100.73 26.3606C100.73 26.176 100.879 26.0264 101.064 26.0264C101.248 26.0264 101.398 26.176 101.398 26.3606Z" fill="white" stroke="#5B5BFF" stroke-width="0.576239"/>
<path d="M53.9995 29.2473C53.9995 29.4319 53.8499 29.5816 53.6653 29.5816C53.4807 29.5816 53.3311 29.4319 53.3311 29.2473C53.3311 29.0628 53.4807 28.9131 53.6653 28.9131C53.8499 28.9131 53.9995 29.0628 53.9995 29.2473Z" fill="white" stroke="#5B5BFF" stroke-width="0.576239"/>
<path d="M59.0308 29.2464C59.0308 29.4309 58.8811 29.5806 58.6966 29.5806C58.512 29.5806 58.3623 29.4309 58.3623 29.2464C58.3623 29.0618 58.512 28.9121 58.6966 28.9121C58.8811 28.9121 59.0308 29.0618 59.0308 29.2464Z" fill="white" stroke="#5B5BFF" stroke-width="0.576239"/>
<path d="M64.0777 29.2473C64.0777 29.4319 63.928 29.5816 63.7434 29.5816C63.5588 29.5816 63.4092 29.4319 63.4092 29.2473C63.4092 29.0628 63.5588 28.9131 63.7434 28.9131C63.928 28.9131 64.0777 29.0628 64.0777 29.2473Z" fill="white" stroke="#5B5BFF" stroke-width="0.576239"/>
<path d="M69.1089 29.2464C69.1089 29.4309 68.9593 29.5806 68.7747 29.5806C68.5901 29.5806 68.4405 29.4309 68.4405 29.2464C68.4405 29.0618 68.5901 28.9121 68.7747 28.9121C68.9593 28.9121 69.1089 29.0618 69.1089 29.2464Z" fill="white" stroke="#5B5BFF" stroke-width="0.576239"/>
<path d="M74.1519 29.2464C74.1519 29.4309 74.0022 29.5806 73.8177 29.5806C73.6331 29.5806 73.4834 29.4309 73.4834 29.2464C73.4834 29.0618 73.6331 28.9121 73.8177 28.9121C74.0022 28.9121 74.1519 29.0618 74.1519 29.2464Z" fill="white" stroke="#5B5BFF" stroke-width="0.576239"/>
<path d="M79.1909 29.2464C79.1909 29.4309 79.0413 29.5806 78.8567 29.5806C78.6721 29.5806 78.5225 29.4309 78.5225 29.2464C78.5225 29.0618 78.6721 28.9121 78.8567 28.9121C79.0413 28.9121 79.1909 29.0618 79.1909 29.2464Z" fill="white" stroke="#5B5BFF" stroke-width="0.576239"/>
<path d="M84.2339 29.2464C84.2339 29.4309 84.0843 29.5806 83.8997 29.5806C83.7151 29.5806 83.5655 29.4309 83.5655 29.2464C83.5655 29.0618 83.7151 28.9121 83.8997 28.9121C84.0843 28.9121 84.2339 29.0618 84.2339 29.2464Z" fill="white" stroke="#5B5BFF" stroke-width="0.576239"/>
<path d="M89.2612 29.2473C89.2612 29.4319 89.1116 29.5816 88.927 29.5816C88.7424 29.5816 88.5928 29.4319 88.5928 29.2473C88.5928 29.0628 88.7424 28.9131 88.927 28.9131C89.1116 28.9131 89.2612 29.0628 89.2612 29.2473Z" fill="white" stroke="#5B5BFF" stroke-width="0.576239"/>
<path d="M94.3003 29.2473C94.3003 29.4319 94.1507 29.5816 93.9661 29.5816C93.7815 29.5816 93.6319 29.4319 93.6319 29.2473C93.6319 29.0628 93.7815 28.9131 93.9661 28.9131C94.1507 28.9131 94.3003 29.0628 94.3003 29.2473Z" fill="white" stroke="#5B5BFF" stroke-width="0.576239"/>
<path d="M99.3433 29.2473C99.3433 29.4319 99.1936 29.5816 99.0091 29.5816C98.8245 29.5816 98.6748 29.4319 98.6748 29.2473C98.6748 29.0628 98.8245 28.9131 99.0091 28.9131C99.1936 28.9131 99.3433 29.0628 99.3433 29.2473Z" fill="white" stroke="#5B5BFF" stroke-width="0.576239"/>
<path d="M56.0503 31.7434C56.0503 31.928 55.9007 32.0777 55.7161 32.0777C55.5315 32.0777 55.3819 31.928 55.3819 31.7434C55.3819 31.5588 55.5315 31.4092 55.7161 31.4092C55.9007 31.4092 56.0503 31.5588 56.0503 31.7434Z" fill="white" stroke="#5B5BFF" stroke-width="0.576239"/>
<path d="M61.0933 31.7434C61.0933 31.928 60.9436 32.0777 60.7591 32.0777C60.5745 32.0777 60.4248 31.928 60.4248 31.7434C60.4248 31.5588 60.5745 31.4092 60.7591 31.4092C60.9436 31.4092 61.0933 31.5588 61.0933 31.7434Z" fill="white" stroke="#5B5BFF" stroke-width="0.576239"/>
<path d="M66.1284 31.7434C66.1284 31.928 65.9788 32.0777 65.7942 32.0777C65.6096 32.0777 65.46 31.928 65.46 31.7434C65.46 31.5588 65.6096 31.4092 65.7942 31.4092C65.9788 31.4092 66.1284 31.5588 66.1284 31.7434Z" fill="white" stroke="#5B5BFF" stroke-width="0.576239"/>
<path d="M71.1558 31.7395C71.1558 31.9241 71.0061 32.0737 70.8216 32.0737C70.637 32.0737 70.4873 31.9241 70.4873 31.7395C70.4873 31.5549 70.637 31.4053 70.8216 31.4053C71.0061 31.4053 71.1558 31.5549 71.1558 31.7395Z" fill="white" stroke="#5B5BFF" stroke-width="0.576239"/>
<path d="M76.2027 31.7434C76.2027 31.928 76.053 32.0777 75.8684 32.0777C75.6838 32.0777 75.5342 31.928 75.5342 31.7434C75.5342 31.5588 75.6838 31.4092 75.8684 31.4092C76.053 31.4092 76.2027 31.5588 76.2027 31.7434Z" fill="white" stroke="#5B5BFF" stroke-width="0.576239"/>
<path d="M81.2417 31.7395C81.2417 31.9241 81.0921 32.0737 80.9075 32.0737C80.7229 32.0737 80.5733 31.9241 80.5733 31.7395C80.5733 31.5549 80.7229 31.4053 80.9075 31.4053C81.0921 31.4053 81.2417 31.5549 81.2417 31.7395Z" fill="white" stroke="#5B5BFF" stroke-width="0.576239"/>
<path d="M86.2808 31.7395C86.2808 31.9241 86.1311 32.0737 85.9466 32.0737C85.762 32.0737 85.6123 31.9241 85.6123 31.7395C85.6123 31.5549 85.762 31.4053 85.9466 31.4053C86.1311 31.4053 86.2808 31.5549 86.2808 31.7395Z" fill="white" stroke="#5B5BFF" stroke-width="0.576239"/>
<path d="M91.3237 31.7395C91.3237 31.9241 91.1741 32.0737 90.9895 32.0737C90.8049 32.0737 90.6553 31.9241 90.6553 31.7395C90.6553 31.5549 90.8049 31.4053 90.9895 31.4053C91.1741 31.4053 91.3237 31.5549 91.3237 31.7395Z" fill="white" stroke="#5B5BFF" stroke-width="0.576239"/>
<path d="M96.3628 31.7395C96.3628 31.9241 96.2132 32.0737 96.0286 32.0737C95.844 32.0737 95.6944 31.9241 95.6944 31.7395C95.6944 31.5549 95.844 31.4053 96.0286 31.4053C96.2132 31.4053 96.3628 31.5549 96.3628 31.7395Z" fill="white" stroke="#5B5BFF" stroke-width="0.576239"/>
<path d="M101.398 31.7434C101.398 31.928 101.248 32.0777 101.064 32.0777C100.879 32.0777 100.73 31.928 100.73 31.7434C100.73 31.5588 100.879 31.4092 101.064 31.4092C101.248 31.4092 101.398 31.5588 101.398 31.7434Z" fill="white" stroke="#5B5BFF" stroke-width="0.576239"/>
<path d="M53.9995 34.6301C53.9995 34.8147 53.8499 34.9644 53.6653 34.9644C53.4807 34.9644 53.3311 34.8147 53.3311 34.6301C53.3311 34.4456 53.4807 34.2959 53.6653 34.2959C53.8499 34.2959 53.9995 34.4456 53.9995 34.6301Z" fill="white" stroke="#5B5BFF" stroke-width="0.576239"/>
<path d="M59.0308 34.6301C59.0308 34.8147 58.8811 34.9644 58.6966 34.9644C58.512 34.9644 58.3623 34.8147 58.3623 34.6301C58.3623 34.4456 58.512 34.2959 58.6966 34.2959C58.8811 34.2959 59.0308 34.4456 59.0308 34.6301Z" fill="white" stroke="#5B5BFF" stroke-width="0.576239"/>
<path d="M64.0777 34.6301C64.0777 34.8147 63.928 34.9644 63.7434 34.9644C63.5588 34.9644 63.4092 34.8147 63.4092 34.6301C63.4092 34.4456 63.5588 34.2959 63.7434 34.2959C63.928 34.2959 64.0777 34.4456 64.0777 34.6301Z" fill="white" stroke="#5B5BFF" stroke-width="0.576239"/>
<path d="M69.1089 34.6301C69.1089 34.8147 68.9593 34.9644 68.7747 34.9644C68.5901 34.9644 68.4405 34.8147 68.4405 34.6301C68.4405 34.4456 68.5901 34.2959 68.7747 34.2959C68.9593 34.2959 69.1089 34.4456 69.1089 34.6301Z" fill="white" stroke="#5B5BFF" stroke-width="0.576239"/>
<path d="M74.1519 34.6301C74.1519 34.8147 74.0022 34.9644 73.8177 34.9644C73.6331 34.9644 73.4834 34.8147 73.4834 34.6301C73.4834 34.4456 73.6331 34.2959 73.8177 34.2959C74.0022 34.2959 74.1519 34.4456 74.1519 34.6301Z" fill="white" stroke="#5B5BFF" stroke-width="0.576239"/>
<path d="M79.1909 34.6301C79.1909 34.8147 79.0413 34.9644 78.8567 34.9644C78.6721 34.9644 78.5225 34.8147 78.5225 34.6301C78.5225 34.4456 78.6721 34.2959 78.8567 34.2959C79.0413 34.2959 79.1909 34.4456 79.1909 34.6301Z" fill="white" stroke="#5B5BFF" stroke-width="0.576239"/>
<path d="M84.2339 34.6301C84.2339 34.8147 84.0843 34.9644 83.8997 34.9644C83.7151 34.9644 83.5655 34.8147 83.5655 34.6301C83.5655 34.4456 83.7151 34.2959 83.8997 34.2959C84.0843 34.2959 84.2339 34.4456 84.2339 34.6301Z" fill="white" stroke="#5B5BFF" stroke-width="0.576239"/>
<path d="M89.2612 34.6301C89.2612 34.8147 89.1116 34.9644 88.927 34.9644C88.7424 34.9644 88.5928 34.8147 88.5928 34.6301C88.5928 34.4456 88.7424 34.2959 88.927 34.2959C89.1116 34.2959 89.2612 34.4456 89.2612 34.6301Z" fill="white" stroke="#5B5BFF" stroke-width="0.576239"/>
<path d="M94.3003 34.6301C94.3003 34.8147 94.1507 34.9644 93.9661 34.9644C93.7815 34.9644 93.6319 34.8147 93.6319 34.6301C93.6319 34.4456 93.7815 34.2959 93.9661 34.2959C94.1507 34.2959 94.3003 34.4456 94.3003 34.6301Z" fill="white" stroke="#5B5BFF" stroke-width="0.576239"/>
<path d="M99.3433 34.6301C99.3433 34.8147 99.1936 34.9644 99.0091 34.9644C98.8245 34.9644 98.6748 34.8147 98.6748 34.6301C98.6748 34.4456 98.8245 34.2959 99.0091 34.2959C99.1936 34.2959 99.3433 34.4456 99.3433 34.6301Z" fill="white" stroke="#5B5BFF" stroke-width="0.576239"/>
<path d="M56.0503 37.1223C56.0503 37.3069 55.9007 37.4566 55.7161 37.4566C55.5315 37.4566 55.3819 37.3069 55.3819 37.1223C55.3819 36.9378 55.5315 36.7881 55.7161 36.7881C55.9007 36.7881 56.0503 36.9378 56.0503 37.1223Z" fill="white" stroke="#5B5BFF" stroke-width="0.576239"/>
<path d="M61.0933 37.1223C61.0933 37.3069 60.9436 37.4566 60.7591 37.4566C60.5745 37.4566 60.4248 37.3069 60.4248 37.1223C60.4248 36.9378 60.5745 36.7881 60.7591 36.7881C60.9436 36.7881 61.0933 36.9378 61.0933 37.1223Z" fill="white" stroke="#5B5BFF" stroke-width="0.576239"/>
<path d="M66.1284 37.1223C66.1284 37.3069 65.9788 37.4566 65.7942 37.4566C65.6096 37.4566 65.46 37.3069 65.46 37.1223C65.46 36.9378 65.6096 36.7881 65.7942 36.7881C65.9788 36.7881 66.1284 36.9378 66.1284 37.1223Z" fill="white" stroke="#5B5BFF" stroke-width="0.576239"/>
<path d="M71.1558 37.1223C71.1558 37.3069 71.0061 37.4566 70.8216 37.4566C70.637 37.4566 70.4873 37.3069 70.4873 37.1223C70.4873 36.9378 70.637 36.7881 70.8216 36.7881C71.0061 36.7881 71.1558 36.9378 71.1558 37.1223Z" fill="white" stroke="#5B5BFF" stroke-width="0.576239"/>
<path d="M76.2027 37.1223C76.2027 37.3069 76.053 37.4566 75.8684 37.4566C75.6838 37.4566 75.5342 37.3069 75.5342 37.1223C75.5342 36.9378 75.6838 36.7881 75.8684 36.7881C76.053 36.7881 76.2027 36.9378 76.2027 37.1223Z" fill="white" stroke="#5B5BFF" stroke-width="0.576239"/>
<path d="M81.2417 37.1223C81.2417 37.3069 81.0921 37.4566 80.9075 37.4566C80.7229 37.4566 80.5733 37.3069 80.5733 37.1223C80.5733 36.9378 80.7229 36.7881 80.9075 36.7881C81.0921 36.7881 81.2417 36.9378 81.2417 37.1223Z" fill="white" stroke="#5B5BFF" stroke-width="0.576239"/>
<path d="M86.2808 37.1223C86.2808 37.3069 86.1311 37.4566 85.9466 37.4566C85.762 37.4566 85.6123 37.3069 85.6123 37.1223C85.6123 36.9378 85.762 36.7881 85.9466 36.7881C86.1311 36.7881 86.2808 36.9378 86.2808 37.1223Z" fill="white" stroke="#5B5BFF" stroke-width="0.576239"/>
<path d="M91.3237 37.1223C91.3237 37.3069 91.1741 37.4566 90.9895 37.4566C90.8049 37.4566 90.6553 37.3069 90.6553 37.1223C90.6553 36.9378 90.8049 36.7881 90.9895 36.7881C91.1741 36.7881 91.3237 36.9378 91.3237 37.1223Z" fill="white" stroke="#5B5BFF" stroke-width="0.576239"/>
<path d="M96.3628 37.1223C96.3628 37.3069 96.2132 37.4566 96.0286 37.4566C95.844 37.4566 95.6944 37.3069 95.6944 37.1223C95.6944 36.9378 95.844 36.7881 96.0286 36.7881C96.2132 36.7881 96.3628 36.9378 96.3628 37.1223Z" fill="white" stroke="#5B5BFF" stroke-width="0.576239"/>
<path d="M101.398 37.1223C101.398 37.3069 101.248 37.4566 101.064 37.4566C100.879 37.4566 100.73 37.3069 100.73 37.1223C100.73 36.9378 100.879 36.7881 101.064 36.7881C101.248 36.7881 101.398 36.9378 101.398 37.1223Z" fill="white" stroke="#5B5BFF" stroke-width="0.576239"/>
<path d="M53.9995 40.0091C53.9995 40.1936 53.8499 40.3433 53.6653 40.3433C53.4807 40.3433 53.3311 40.1936 53.3311 40.0091C53.3311 39.8245 53.4807 39.6748 53.6653 39.6748C53.8499 39.6748 53.9995 39.8245 53.9995 40.0091Z" fill="white" stroke="#5B5BFF" stroke-width="0.576239"/>
<path d="M59.0308 40.0091C59.0308 40.1936 58.8811 40.3433 58.6966 40.3433C58.512 40.3433 58.3623 40.1936 58.3623 40.0091C58.3623 39.8245 58.512 39.6748 58.6966 39.6748C58.8811 39.6748 59.0308 39.8245 59.0308 40.0091Z" fill="white" stroke="#5B5BFF" stroke-width="0.576239"/>
<path d="M64.0777 40.0091C64.0777 40.1936 63.928 40.3433 63.7434 40.3433C63.5588 40.3433 63.4092 40.1936 63.4092 40.0091C63.4092 39.8245 63.5588 39.6748 63.7434 39.6748C63.928 39.6748 64.0777 39.8245 64.0777 40.0091Z" fill="white" stroke="#5B5BFF" stroke-width="0.576239"/>
<path d="M69.1089 40.0091C69.1089 40.1936 68.9593 40.3433 68.7747 40.3433C68.5901 40.3433 68.4405 40.1936 68.4405 40.0091C68.4405 39.8245 68.5901 39.6748 68.7747 39.6748C68.9593 39.6748 69.1089 39.8245 69.1089 40.0091Z" fill="white" stroke="#5B5BFF" stroke-width="0.576239"/>
<path d="M74.1519 40.0091C74.1519 40.1936 74.0022 40.3433 73.8177 40.3433C73.6331 40.3433 73.4834 40.1936 73.4834 40.0091C73.4834 39.8245 73.6331 39.6748 73.8177 39.6748C74.0022 39.6748 74.1519 39.8245 74.1519 40.0091Z" fill="white" stroke="#5B5BFF" stroke-width="0.576239"/>
<path d="M79.1909 40.0091C79.1909 40.1936 79.0413 40.3433 78.8567 40.3433C78.6721 40.3433 78.5225 40.1936 78.5225 40.0091C78.5225 39.8245 78.6721 39.6748 78.8567 39.6748C79.0413 39.6748 79.1909 39.8245 79.1909 40.0091Z" fill="white" stroke="#5B5BFF" stroke-width="0.576239"/>
<path d="M84.2339 40.0091C84.2339 40.1936 84.0843 40.3433 83.8997 40.3433C83.7151 40.3433 83.5655 40.1936 83.5655 40.0091C83.5655 39.8245 83.7151 39.6748 83.8997 39.6748C84.0843 39.6748 84.2339 39.8245 84.2339 40.0091Z" fill="white" stroke="#5B5BFF" stroke-width="0.576239"/>
<path d="M89.2612 40.0091C89.2612 40.1936 89.1116 40.3433 88.927 40.3433C88.7424 40.3433 88.5928 40.1936 88.5928 40.0091C88.5928 39.8245 88.7424 39.6748 88.927 39.6748C89.1116 39.6748 89.2612 39.8245 89.2612 40.0091Z" fill="white" stroke="#5B5BFF" stroke-width="0.576239"/>
<path d="M94.3003 40.0091C94.3003 40.1936 94.1507 40.3433 93.9661 40.3433C93.7815 40.3433 93.6319 40.1936 93.6319 40.0091C93.6319 39.8245 93.7815 39.6748 93.9661 39.6748C94.1507 39.6748 94.3003 39.8245 94.3003 40.0091Z" fill="white" stroke="#5B5BFF" stroke-width="0.576239"/>
<path d="M99.3433 40.0091C99.3433 40.1936 99.1936 40.3433 99.0091 40.3433C98.8245 40.3433 98.6748 40.1936 98.6748 40.0091C98.6748 39.8245 98.8245 39.6748 99.0091 39.6748C99.1936 39.6748 99.3433 39.8245 99.3433 40.0091Z" fill="white" stroke="#5B5BFF" stroke-width="0.576239"/>
<path d="M56.0496 42.5056C56.0496 42.6902 55.8999 42.8398 55.7154 42.8398C55.5308 42.8398 55.3811 42.6902 55.3811 42.5056C55.3811 42.321 55.5308 42.1714 55.7154 42.1714C55.8999 42.1714 56.0496 42.321 56.0496 42.5056Z" fill="white" stroke="#5B5BFF" stroke-width="0.576239"/>
<path d="M61.0924 42.5056C61.0924 42.6902 60.9428 42.8398 60.7582 42.8398C60.5736 42.8398 60.424 42.6902 60.424 42.5056C60.424 42.321 60.5736 42.1714 60.7582 42.1714C60.9428 42.1714 61.0924 42.321 61.0924 42.5056Z" fill="white" stroke="#5B5BFF" stroke-width="0.576239"/>
<path d="M66.1283 42.5056C66.1283 42.6902 65.9787 42.8398 65.7941 42.8398C65.6095 42.8398 65.4599 42.6902 65.4599 42.5056C65.4599 42.321 65.6095 42.1714 65.7941 42.1714C65.9787 42.1714 66.1283 42.321 66.1283 42.5056Z" fill="white" stroke="#5B5BFF" stroke-width="0.576239"/>
<path d="M71.1558 42.5056C71.1558 42.6902 71.0061 42.8399 70.8216 42.8399C70.637 42.8399 70.4873 42.6902 70.4873 42.5056C70.4873 42.3211 70.637 42.1714 70.8216 42.1714C71.0061 42.1714 71.1558 42.3211 71.1558 42.5056Z" fill="white" stroke="#5B5BFF" stroke-width="0.576239"/>
<path d="M76.2036 42.5056C76.2036 42.6902 76.054 42.8398 75.8694 42.8398C75.6848 42.8398 75.5352 42.6902 75.5352 42.5056C75.5352 42.321 75.6848 42.1714 75.8694 42.1714C76.054 42.1714 76.2036 42.321 76.2036 42.5056Z" fill="white" stroke="#5B5BFF" stroke-width="0.576239"/>
<path d="M81.2417 42.5056C81.2417 42.6902 81.0921 42.8399 80.9075 42.8399C80.7229 42.8399 80.5733 42.6902 80.5733 42.5056C80.5733 42.3211 80.7229 42.1714 80.9075 42.1714C81.0921 42.1714 81.2417 42.3211 81.2417 42.5056Z" fill="white" stroke="#5B5BFF" stroke-width="0.576239"/>
<path d="M86.2808 42.5056C86.2808 42.6902 86.1311 42.8399 85.9466 42.8399C85.762 42.8399 85.6123 42.6902 85.6123 42.5056C85.6123 42.3211 85.762 42.1714 85.9466 42.1714C86.1311 42.1714 86.2808 42.3211 86.2808 42.5056Z" fill="white" stroke="#5B5BFF" stroke-width="0.576239"/>
<path d="M91.3237 42.5056C91.3237 42.6902 91.1741 42.8399 90.9895 42.8399C90.8049 42.8399 90.6553 42.6902 90.6553 42.5056C90.6553 42.3211 90.8049 42.1714 90.9895 42.1714C91.1741 42.1714 91.3237 42.3211 91.3237 42.5056Z" fill="white" stroke="#5B5BFF" stroke-width="0.576239"/>
<path d="M96.3628 42.5056C96.3628 42.6902 96.2132 42.8399 96.0286 42.8399C95.844 42.8399 95.6944 42.6902 95.6944 42.5056C95.6944 42.3211 95.844 42.1714 96.0286 42.1714C96.2132 42.1714 96.3628 42.3211 96.3628 42.5056Z" fill="white" stroke="#5B5BFF" stroke-width="0.576239"/>
<path d="M101.397 42.5056C101.397 42.6902 101.247 42.8398 101.063 42.8398C100.878 42.8398 100.729 42.6902 100.729 42.5056C100.729 42.321 100.878 42.1714 101.063 42.1714C101.247 42.1714 101.397 42.321 101.397 42.5056Z" fill="white" stroke="#5B5BFF" stroke-width="0.576239"/>
<path d="M53.9995 45.3927C53.9995 45.5773 53.8499 45.7269 53.6653 45.7269C53.4807 45.7269 53.3311 45.5773 53.3311 45.3927C53.3311 45.2081 53.4807 45.0585 53.6653 45.0585C53.8499 45.0585 53.9995 45.2081 53.9995 45.3927Z" fill="white" stroke="#5B5BFF" stroke-width="0.576239"/>
<path d="M59.0308 45.3926C59.0308 45.5772 58.8811 45.7268 58.6966 45.7268C58.512 45.7268 58.3623 45.5772 58.3623 45.3926C58.3623 45.208 58.512 45.0584 58.6966 45.0584C58.8811 45.0584 59.0308 45.208 59.0308 45.3926Z" fill="white" stroke="#5B5BFF" stroke-width="0.576239"/>
<path d="M64.0781 45.3927C64.0781 45.5773 63.9285 45.7269 63.7439 45.7269C63.5593 45.7269 63.4097 45.5773 63.4097 45.3927C63.4097 45.2081 63.5593 45.0585 63.7439 45.0585C63.9285 45.0585 64.0781 45.2081 64.0781 45.3927Z" fill="white" stroke="#5B5BFF" stroke-width="0.576239"/>
<path d="M69.1089 45.3926C69.1089 45.5772 68.9593 45.7268 68.7747 45.7268C68.5901 45.7268 68.4405 45.5772 68.4405 45.3926C68.4405 45.208 68.5901 45.0584 68.7747 45.0584C68.9593 45.0584 69.1089 45.208 69.1089 45.3926Z" fill="white" stroke="#5B5BFF" stroke-width="0.576239"/>
<path d="M74.1519 45.3926C74.1519 45.5772 74.0022 45.7268 73.8177 45.7268C73.6331 45.7268 73.4834 45.5772 73.4834 45.3926C73.4834 45.208 73.6331 45.0584 73.8177 45.0584C74.0022 45.0584 74.1519 45.208 74.1519 45.3926Z" fill="white" stroke="#5B5BFF" stroke-width="0.576239"/>
<path d="M79.1909 45.3926C79.1909 45.5772 79.0413 45.7268 78.8567 45.7268C78.6721 45.7268 78.5225 45.5772 78.5225 45.3926C78.5225 45.208 78.6721 45.0584 78.8567 45.0584C79.0413 45.0584 79.1909 45.208 79.1909 45.3926Z" fill="white" stroke="#5B5BFF" stroke-width="0.576239"/>
<path d="M84.2339 45.3926C84.2339 45.5772 84.0843 45.7268 83.8997 45.7268C83.7151 45.7268 83.5655 45.5772 83.5655 45.3926C83.5655 45.208 83.7151 45.0584 83.8997 45.0584C84.0843 45.0584 84.2339 45.208 84.2339 45.3926Z" fill="white" stroke="#5B5BFF" stroke-width="0.576239"/>
<path d="M89.2612 45.3927C89.2612 45.5773 89.1116 45.7269 88.927 45.7269C88.7424 45.7269 88.5928 45.5773 88.5928 45.3927C88.5928 45.2081 88.7424 45.0585 88.927 45.0585C89.1116 45.0585 89.2612 45.2081 89.2612 45.3927Z" fill="white" stroke="#5B5BFF" stroke-width="0.576239"/>
<path d="M94.3006 45.3927C94.3006 45.5773 94.1509 45.7269 93.9663 45.7269C93.7817 45.7269 93.6321 45.5773 93.6321 45.3927C93.6321 45.2081 93.7817 45.0585 93.9663 45.0585C94.1509 45.0585 94.3006 45.2081 94.3006 45.3927Z" fill="white" stroke="#5B5BFF" stroke-width="0.576239"/>
<path d="M99.3434 45.3927C99.3434 45.5773 99.1938 45.7269 99.0092 45.7269C98.8246 45.7269 98.675 45.5773 98.675 45.3927C98.675 45.2081 98.8246 45.0585 99.0092 45.0585C99.1938 45.0585 99.3434 45.2081 99.3434 45.3927Z" fill="white" stroke="#5B5BFF" stroke-width="0.576239"/>
<path d="M56.0496 47.8881C56.0496 48.0727 55.8999 48.2223 55.7154 48.2223C55.5308 48.2223 55.3811 48.0727 55.3811 47.8881C55.3811 47.7035 55.5308 47.5539 55.7154 47.5539C55.8999 47.5539 56.0496 47.7035 56.0496 47.8881Z" fill="white" stroke="#5B5BFF" stroke-width="0.576239"/>
<path d="M61.0924 47.8881C61.0924 48.0727 60.9428 48.2223 60.7582 48.2223C60.5736 48.2223 60.424 48.0727 60.424 47.8881C60.424 47.7035 60.5736 47.5539 60.7582 47.5539C60.9428 47.5539 61.0924 47.7035 61.0924 47.8881Z" fill="white" stroke="#5B5BFF" stroke-width="0.576239"/>
<path d="M66.1283 47.8881C66.1283 48.0727 65.9787 48.2223 65.7941 48.2223C65.6095 48.2223 65.4599 48.0727 65.4599 47.8881C65.4599 47.7035 65.6095 47.5539 65.7941 47.5539C65.9787 47.5539 66.1283 47.7035 66.1283 47.8881Z" fill="white" stroke="#5B5BFF" stroke-width="0.576239"/>
<path d="M71.1558 47.888C71.1558 48.0725 71.0061 48.2222 70.8216 48.2222C70.637 48.2222 70.4873 48.0725 70.4873 47.888C70.4873 47.7034 70.637 47.5537 70.8216 47.5537C71.0061 47.5537 71.1558 47.7034 71.1558 47.888Z" fill="white" stroke="#5B5BFF" stroke-width="0.576239"/>
<path d="M76.2036 47.8881C76.2036 48.0727 76.054 48.2223 75.8694 48.2223C75.6848 48.2223 75.5352 48.0727 75.5352 47.8881C75.5352 47.7035 75.6848 47.5539 75.8694 47.5539C76.054 47.5539 76.2036 47.7035 76.2036 47.8881Z" fill="white" stroke="#5B5BFF" stroke-width="0.576239"/>
<path d="M81.2417 47.888C81.2417 48.0725 81.0921 48.2222 80.9075 48.2222C80.7229 48.2222 80.5733 48.0725 80.5733 47.888C80.5733 47.7034 80.7229 47.5537 80.9075 47.5537C81.0921 47.5537 81.2417 47.7034 81.2417 47.888Z" fill="white" stroke="#5B5BFF" stroke-width="0.576239"/>
<path d="M86.2808 47.888C86.2808 48.0725 86.1311 48.2222 85.9466 48.2222C85.762 48.2222 85.6123 48.0725 85.6123 47.888C85.6123 47.7034 85.762 47.5537 85.9466 47.5537C86.1311 47.5537 86.2808 47.7034 86.2808 47.888Z" fill="white" stroke="#5B5BFF" stroke-width="0.576239"/>
<path d="M91.3237 47.888C91.3237 48.0725 91.1741 48.2222 90.9895 48.2222C90.8049 48.2222 90.6553 48.0725 90.6553 47.888C90.6553 47.7034 90.8049 47.5537 90.9895 47.5537C91.1741 47.5537 91.3237 47.7034 91.3237 47.888Z" fill="white" stroke="#5B5BFF" stroke-width="0.576239"/>
<path d="M96.3628 47.888C96.3628 48.0725 96.2132 48.2222 96.0286 48.2222C95.844 48.2222 95.6944 48.0725 95.6944 47.888C95.6944 47.7034 95.844 47.5537 96.0286 47.5537C96.2132 47.5537 96.3628 47.7034 96.3628 47.888Z" fill="white" stroke="#5B5BFF" stroke-width="0.576239"/>
<path d="M101.397 47.8881C101.397 48.0727 101.247 48.2223 101.063 48.2223C100.878 48.2223 100.729 48.0727 100.729 47.8881C100.729 47.7035 100.878 47.5539 101.063 47.5539C101.247 47.5539 101.397 47.7035 101.397 47.8881Z" fill="white" stroke="#5B5BFF" stroke-width="0.576239"/>
<path d="M53.9995 50.7708C53.9995 50.9554 53.8499 51.105 53.6653 51.105C53.4807 51.105 53.3311 50.9554 53.3311 50.7708C53.3311 50.5862 53.4807 50.4366 53.6653 50.4366C53.8499 50.4366 53.9995 50.5862 53.9995 50.7708Z" fill="white" stroke="#5B5BFF" stroke-width="0.576239"/>
<path d="M59.0308 50.7708C59.0308 50.9554 58.8811 51.105 58.6966 51.105C58.512 51.105 58.3623 50.9554 58.3623 50.7708C58.3623 50.5862 58.512 50.4366 58.6966 50.4366C58.8811 50.4366 59.0308 50.5862 59.0308 50.7708Z" fill="white" stroke="#5B5BFF" stroke-width="0.576239"/>
<path d="M64.0777 50.7708C64.0777 50.9554 63.928 51.105 63.7434 51.105C63.5588 51.105 63.4092 50.9554 63.4092 50.7708C63.4092 50.5862 63.5588 50.4366 63.7434 50.4366C63.928 50.4366 64.0777 50.5862 64.0777 50.7708Z" fill="white" stroke="#5B5BFF" stroke-width="0.576239"/>
<path d="M69.1089 50.7708C69.1089 50.9554 68.9593 51.105 68.7747 51.105C68.5901 51.105 68.4405 50.9554 68.4405 50.7708C68.4405 50.5862 68.5901 50.4366 68.7747 50.4366C68.9593 50.4366 69.1089 50.5862 69.1089 50.7708Z" fill="white" stroke="#5B5BFF" stroke-width="0.576239"/>
<path d="M74.1519 50.7708C74.1519 50.9554 74.0022 51.105 73.8177 51.105C73.6331 51.105 73.4834 50.9554 73.4834 50.7708C73.4834 50.5862 73.6331 50.4366 73.8177 50.4366C74.0022 50.4366 74.1519 50.5862 74.1519 50.7708Z" fill="white" stroke="#5B5BFF" stroke-width="0.576239"/>
<path d="M79.1909 50.7708C79.1909 50.9554 79.0413 51.105 78.8567 51.105C78.6721 51.105 78.5225 50.9554 78.5225 50.7708C78.5225 50.5862 78.6721 50.4366 78.8567 50.4366C79.0413 50.4366 79.1909 50.5862 79.1909 50.7708Z" fill="white" stroke="#5B5BFF" stroke-width="0.576239"/>
<path d="M84.2339 50.7708C84.2339 50.9554 84.0843 51.105 83.8997 51.105C83.7151 51.105 83.5655 50.9554 83.5655 50.7708C83.5655 50.5862 83.7151 50.4366 83.8997 50.4366C84.0843 50.4366 84.2339 50.5862 84.2339 50.7708Z" fill="white" stroke="#5B5BFF" stroke-width="0.576239"/>
<path d="M89.2612 50.7708C89.2612 50.9554 89.1116 51.105 88.927 51.105C88.7424 51.105 88.5928 50.9554 88.5928 50.7708C88.5928 50.5862 88.7424 50.4366 88.927 50.4366C89.1116 50.4366 89.2612 50.5862 89.2612 50.7708Z" fill="white" stroke="#5B5BFF" stroke-width="0.576239"/>
<path d="M94.3003 50.7708C94.3003 50.9554 94.1507 51.105 93.9661 51.105C93.7815 51.105 93.6319 50.9554 93.6319 50.7708C93.6319 50.5862 93.7815 50.4366 93.9661 50.4366C94.1507 50.4366 94.3003 50.5862 94.3003 50.7708Z" fill="white" stroke="#5B5BFF" stroke-width="0.576239"/>
<path d="M99.3433 50.7708C99.3433 50.9554 99.1936 51.105 99.0091 51.105C98.8245 51.105 98.6748 50.9554 98.6748 50.7708C98.6748 50.5862 98.8245 50.4366 99.0091 50.4366C99.1936 50.4366 99.3433 50.5862 99.3433 50.7708Z" fill="white" stroke="#5B5BFF" stroke-width="0.576239"/>
<path d="M56.0496 53.2699C56.0496 53.4545 55.8999 53.6041 55.7154 53.6041C55.5308 53.6041 55.3811 53.4545 55.3811 53.2699C55.3811 53.0853 55.5308 52.9357 55.7154 52.9357C55.8999 52.9357 56.0496 53.0853 56.0496 53.2699Z" fill="white" stroke="#5B5BFF" stroke-width="0.576239"/>
<path d="M61.0924 53.2699C61.0924 53.4545 60.9428 53.6041 60.7582 53.6041C60.5736 53.6041 60.424 53.4545 60.424 53.2699C60.424 53.0853 60.5736 52.9357 60.7582 52.9357C60.9428 52.9357 61.0924 53.0853 61.0924 53.2699Z" fill="white" stroke="#5B5BFF" stroke-width="0.576239"/>
<path d="M66.1283 53.2699C66.1283 53.4545 65.9787 53.6041 65.7941 53.6041C65.6095 53.6041 65.4599 53.4545 65.4599 53.2699C65.4599 53.0853 65.6095 52.9357 65.7941 52.9357C65.9787 52.9357 66.1283 53.0853 66.1283 53.2699Z" fill="white" stroke="#5B5BFF" stroke-width="0.576239"/>
<path d="M71.1558 53.2698C71.1558 53.4544 71.0061 53.604 70.8216 53.604C70.637 53.604 70.4873 53.4544 70.4873 53.2698C70.4873 53.0852 70.637 52.9356 70.8216 52.9356C71.0061 52.9356 71.1558 53.0852 71.1558 53.2698Z" fill="white" stroke="#5B5BFF" stroke-width="0.576239"/>
<path d="M76.2036 53.2699C76.2036 53.4545 76.054 53.6041 75.8694 53.6041C75.6848 53.6041 75.5352 53.4545 75.5352 53.2699C75.5352 53.0853 75.6848 52.9357 75.8694 52.9357C76.054 52.9357 76.2036 53.0853 76.2036 53.2699Z" fill="white" stroke="#5B5BFF" stroke-width="0.576239"/>
<path d="M81.2417 53.2698C81.2417 53.4544 81.0921 53.604 80.9075 53.604C80.7229 53.604 80.5733 53.4544 80.5733 53.2698C80.5733 53.0852 80.7229 52.9356 80.9075 52.9356C81.0921 52.9356 81.2417 53.0852 81.2417 53.2698Z" fill="white" stroke="#5B5BFF" stroke-width="0.576239"/>
<path d="M86.2808 53.2698C86.2808 53.4544 86.1311 53.604 85.9466 53.604C85.762 53.604 85.6123 53.4544 85.6123 53.2698C85.6123 53.0852 85.762 52.9356 85.9466 52.9356C86.1311 52.9356 86.2808 53.0852 86.2808 53.2698Z" fill="white" stroke="#5B5BFF" stroke-width="0.576239"/>
<path d="M91.3237 53.2698C91.3237 53.4544 91.1741 53.604 90.9895 53.604C90.8049 53.604 90.6553 53.4544 90.6553 53.2698C90.6553 53.0852 90.8049 52.9356 90.9895 52.9356C91.1741 52.9356 91.3237 53.0852 91.3237 53.2698Z" fill="white" stroke="#5B5BFF" stroke-width="0.576239"/>
<path d="M96.3628 53.2698C96.3628 53.4544 96.2132 53.604 96.0286 53.604C95.844 53.604 95.6944 53.4544 95.6944 53.2698C95.6944 53.0852 95.844 52.9356 96.0286 52.9356C96.2132 52.9356 96.3628 53.0852 96.3628 53.2698Z" fill="white" stroke="#5B5BFF" stroke-width="0.576239"/>
<path d="M101.397 53.2699C101.397 53.4545 101.247 53.6041 101.063 53.6041C100.878 53.6041 100.729 53.4545 100.729 53.2699C100.729 53.0853 100.878 52.9357 101.063 52.9357C101.247 52.9357 101.397 53.0853 101.397 53.2699Z" fill="white" stroke="#5B5BFF" stroke-width="0.576239"/>
<path d="M53.9995 56.1497C53.9995 56.3343 53.8499 56.4839 53.6653 56.4839C53.4807 56.4839 53.3311 56.3343 53.3311 56.1497C53.3311 55.9651 53.4807 55.8155 53.6653 55.8155C53.8499 55.8155 53.9995 55.9651 53.9995 56.1497Z" fill="white" stroke="#5B5BFF" stroke-width="0.576239"/>
<path d="M59.0308 56.1497C59.0308 56.3343 58.8811 56.4839 58.6966 56.4839C58.512 56.4839 58.3623 56.3343 58.3623 56.1497C58.3623 55.9651 58.512 55.8155 58.6966 55.8155C58.8811 55.8155 59.0308 55.9651 59.0308 56.1497Z" fill="white" stroke="#5B5BFF" stroke-width="0.576239"/>
<path d="M64.0777 56.1497C64.0777 56.3343 63.928 56.4839 63.7434 56.4839C63.5588 56.4839 63.4092 56.3343 63.4092 56.1497C63.4092 55.9651 63.5588 55.8155 63.7434 55.8155C63.928 55.8155 64.0777 55.9651 64.0777 56.1497Z" fill="white" stroke="#5B5BFF" stroke-width="0.576239"/>
<path d="M69.1089 56.1497C69.1089 56.3343 68.9593 56.4839 68.7747 56.4839C68.5901 56.4839 68.4405 56.3343 68.4405 56.1497C68.4405 55.9651 68.5901 55.8155 68.7747 55.8155C68.9593 55.8155 69.1089 55.9651 69.1089 56.1497Z" fill="white" stroke="#5B5BFF" stroke-width="0.576239"/>
<path d="M74.1519 56.1497C74.1519 56.3343 74.0022 56.4839 73.8177 56.4839C73.6331 56.4839 73.4834 56.3343 73.4834 56.1497C73.4834 55.9651 73.6331 55.8155 73.8177 55.8155C74.0022 55.8155 74.1519 55.9651 74.1519 56.1497Z" fill="white" stroke="#5B5BFF" stroke-width="0.576239"/>
<path d="M79.1909 56.1497C79.1909 56.3343 79.0413 56.4839 78.8567 56.4839C78.6721 56.4839 78.5225 56.3343 78.5225 56.1497C78.5225 55.9651 78.6721 55.8155 78.8567 55.8155C79.0413 55.8155 79.1909 55.9651 79.1909 56.1497Z" fill="white" stroke="#5B5BFF" stroke-width="0.576239"/>
<path d="M84.2339 56.1497C84.2339 56.3343 84.0843 56.4839 83.8997 56.4839C83.7151 56.4839 83.5655 56.3343 83.5655 56.1497C83.5655 55.9651 83.7151 55.8155 83.8997 55.8155C84.0843 55.8155 84.2339 55.9651 84.2339 56.1497Z" fill="white" stroke="#5B5BFF" stroke-width="0.576239"/>
<path d="M89.2612 56.1497C89.2612 56.3343 89.1116 56.4839 88.927 56.4839C88.7424 56.4839 88.5928 56.3343 88.5928 56.1497C88.5928 55.9651 88.7424 55.8155 88.927 55.8155C89.1116 55.8155 89.2612 55.9651 89.2612 56.1497Z" fill="white" stroke="#5B5BFF" stroke-width="0.576239"/>
<path d="M94.3003 56.1497C94.3003 56.3343 94.1507 56.4839 93.9661 56.4839C93.7815 56.4839 93.6319 56.3343 93.6319 56.1497C93.6319 55.9651 93.7815 55.8155 93.9661 55.8155C94.1507 55.8155 94.3003 55.9651 94.3003 56.1497Z" fill="white" stroke="#5B5BFF" stroke-width="0.576239"/>
<path d="M99.3433 56.1497C99.3433 56.3343 99.1936 56.4839 99.0091 56.4839C98.8245 56.4839 98.6748 56.3343 98.6748 56.1497C98.6748 55.9651 98.8245 55.8155 99.0091 55.8155C99.1936 55.8155 99.3433 55.9651 99.3433 56.1497Z" fill="white" stroke="#5B5BFF" stroke-width="0.576239"/>
<path d="M56.0503 58.6536C56.0503 58.8382 55.9007 58.9878 55.7161 58.9878C55.5315 58.9878 55.3819 58.8382 55.3819 58.6536C55.3819 58.469 55.5315 58.3194 55.7161 58.3194C55.9007 58.3194 56.0503 58.469 56.0503 58.6536Z" fill="white" stroke="#5B5BFF" stroke-width="0.576239"/>
<path d="M61.0933 58.6536C61.0933 58.8382 60.9436 58.9878 60.7591 58.9878C60.5745 58.9878 60.4248 58.8382 60.4248 58.6536C60.4248 58.469 60.5745 58.3194 60.7591 58.3194C60.9436 58.3194 61.0933 58.469 61.0933 58.6536Z" fill="white" stroke="#5B5BFF" stroke-width="0.576239"/>
<path d="M66.1284 58.6536C66.1284 58.8382 65.9788 58.9878 65.7942 58.9878C65.6096 58.9878 65.46 58.8382 65.46 58.6536C65.46 58.469 65.6096 58.3194 65.7942 58.3194C65.9788 58.3194 66.1284 58.469 66.1284 58.6536Z" fill="white" stroke="#5B5BFF" stroke-width="0.576239"/>
<path d="M71.1558 58.6536C71.1558 58.8382 71.0061 58.9878 70.8216 58.9878C70.637 58.9878 70.4873 58.8382 70.4873 58.6536C70.4873 58.469 70.637 58.3194 70.8216 58.3194C71.0061 58.3194 71.1558 58.469 71.1558 58.6536Z" fill="white" stroke="#5B5BFF" stroke-width="0.576239"/>
<path d="M76.2027 58.6536C76.2027 58.8382 76.053 58.9878 75.8684 58.9878C75.6838 58.9878 75.5342 58.8382 75.5342 58.6536C75.5342 58.469 75.6838 58.3194 75.8684 58.3194C76.053 58.3194 76.2027 58.469 76.2027 58.6536Z" fill="white" stroke="#5B5BFF" stroke-width="0.576239"/>
<path d="M81.2417 58.6536C81.2417 58.8382 81.0921 58.9878 80.9075 58.9878C80.7229 58.9878 80.5733 58.8382 80.5733 58.6536C80.5733 58.469 80.7229 58.3194 80.9075 58.3194C81.0921 58.3194 81.2417 58.469 81.2417 58.6536Z" fill="white" stroke="#5B5BFF" stroke-width="0.576239"/>
<path d="M86.2808 58.6536C86.2808 58.8382 86.1311 58.9878 85.9466 58.9878C85.762 58.9878 85.6123 58.8382 85.6123 58.6536C85.6123 58.469 85.762 58.3194 85.9466 58.3194C86.1311 58.3194 86.2808 58.469 86.2808 58.6536Z" fill="white" stroke="#5B5BFF" stroke-width="0.576239"/>
<path d="M91.3237 58.6536C91.3237 58.8382 91.1741 58.9878 90.9895 58.9878C90.8049 58.9878 90.6553 58.8382 90.6553 58.6536C90.6553 58.469 90.8049 58.3194 90.9895 58.3194C91.1741 58.3194 91.3237 58.469 91.3237 58.6536Z" fill="white" stroke="#5B5BFF" stroke-width="0.576239"/>
<path d="M96.3628 58.6536C96.3628 58.8382 96.2132 58.9878 96.0286 58.9878C95.844 58.9878 95.6944 58.8382 95.6944 58.6536C95.6944 58.469 95.844 58.3194 96.0286 58.3194C96.2132 58.3194 96.3628 58.469 96.3628 58.6536Z" fill="white" stroke="#5B5BFF" stroke-width="0.576239"/>
<path d="M101.398 58.6536C101.398 58.8382 101.248 58.9878 101.064 58.9878C100.879 58.9878 100.73 58.8382 100.73 58.6536C100.73 58.469 100.879 58.3194 101.064 58.3194C101.248 58.3194 101.398 58.469 101.398 58.6536Z" fill="white" stroke="#5B5BFF" stroke-width="0.576239"/>
<path d="M103.832 16.4998H51.0547V23.9391H103.832V16.4998Z" fill="white" stroke="#5B5BFF" stroke-width="1.15248" stroke-miterlimit="10"/>
<g style="mix-blend-mode:soft-light">
<path d="M51.3428 18.9316V16.788H103.544V18.9316H51.3428Z" fill="white"/>
<path d="M51.3428 18.9316V16.788H103.544V18.9316H51.3428Z" stroke="#5B5BFF" stroke-width="0.576239"/>
</g>
<path d="M82.4321 23.9335H72.4574V59.6777H82.4321V23.9335Z" fill="white" stroke="#5B5BFF" stroke-width="1.15248" stroke-miterlimit="10"/>
<path d="M83.5198 16.4998H71.3669V23.9391H83.5198V16.4998Z" fill="white" stroke="#5B5BFF" stroke-width="1.15248" stroke-miterlimit="10"/>
<path d="M127.426 45.3977H86.2422V59.9996H127.426V45.3977Z" fill="white" stroke="#5B5BFF" stroke-width="1.15248" stroke-linecap="round" stroke-linejoin="round"/>
<path d="M90.6285 59.477L86.5768 56.9879V55.1861L93.5665 59.477H90.6285Z" fill="white" stroke="#5B5BFF" stroke-width="0.576239"/>
<path d="M100.765 59.4757L86.5772 50.7631V48.9557L103.709 59.4757H100.765Z" fill="white" stroke="#5B5BFF" stroke-width="0.576239"/>
<path d="M113.846 59.4782H110.907L87.0367 44.8186H89.9877L113.846 59.4782Z" fill="white" stroke="#5B5BFF" stroke-width="0.576239"/>
<path d="M97.1757 44.8177H100.114L123.978 59.4772H121.039L97.1757 44.8177Z" fill="white" stroke="#5B5BFF" stroke-width="0.576239"/>
<path d="M127.084 56.9577L107.324 44.8186H110.263L127.084 55.1504V56.9577Z" fill="white" stroke="#5B5BFF" stroke-width="0.576239"/>
<path d="M127.081 50.7277L117.457 44.8177H120.401L127.081 48.9259V50.7277Z" fill="white" stroke="#5B5BFF" stroke-width="0.576239"/>
<path d="M104.894 39.1547C104.894 39.1547 96.619 32.551 96.4058 31.2026C96.1926 29.8542 100.664 26.5466 101.943 27.1401C103.223 27.7337 105.804 37.5124 105.804 37.5124L104.894 39.1547Z" fill="white" stroke="#5B5BFF" stroke-width="1.15248" stroke-miterlimit="10"/>
<path d="M104.348 35.9892L104.346 35.9594L104.339 35.9306L103.713 33.6543L104.846 35.7027L104.846 35.7027L104.847 35.7056C104.867 35.7393 104.879 35.7764 104.884 35.8149C104.888 35.8533 104.886 35.8924 104.875 35.9297C104.865 35.9671 104.848 36.0021 104.824 36.0326C104.8 36.0632 104.77 36.0888 104.737 36.108L104.872 36.3457L104.737 36.108C104.703 36.1271 104.666 36.1394 104.627 36.1442C104.589 36.149 104.55 36.1462 104.512 36.1359C104.475 36.1256 104.44 36.1081 104.41 36.0843C104.388 36.0674 104.369 36.0476 104.353 36.0255C104.35 36.0135 104.349 36.0014 104.348 35.9892Z" fill="white" stroke="#5B5BFF" stroke-width="0.576239"/>
<path d="M103.236 37.3529L103.226 37.3447L103.215 37.3375C103.199 37.3276 103.185 37.3163 103.172 37.3038L101.778 35.4549L103.599 36.8944C103.599 36.8944 103.599 36.8944 103.599 36.8945C103.66 36.9426 103.699 37.0128 103.708 37.0898C103.717 37.1668 103.695 37.2443 103.647 37.3051C103.599 37.3659 103.528 37.4051 103.451 37.4141C103.374 37.423 103.297 37.4011 103.236 37.3529Z" fill="white" stroke="#5B5BFF" stroke-width="0.576239"/>
<path d="M104.344 38.0411L104.338 38.0145L104.327 37.9896L103.38 35.8342L104.797 37.6923L104.797 37.6923L104.797 37.6933C104.845 37.755 104.866 37.833 104.856 37.9101C104.846 37.9872 104.805 38.0572 104.744 38.1046C104.682 38.1521 104.604 38.173 104.527 38.1629C104.461 38.1543 104.4 38.1236 104.354 38.0763C104.35 38.0647 104.347 38.053 104.344 38.0411Z" fill="white" stroke="#5B5BFF" stroke-width="0.576239"/>
<path d="M105.647 39.9501C105.647 39.9501 95.0675 40.3593 94.0245 39.4834C92.9815 38.6075 94.2031 33.1736 95.5631 32.7875C96.923 32.4014 105.278 38.1292 105.278 38.1292L105.647 39.9501Z" fill="white" stroke="#5B5BFF" stroke-width="1.15248" stroke-miterlimit="10"/>
<path d="M103.187 37.9085L103.187 37.9083L103.178 37.9055C103.155 37.898 103.134 37.8877 103.113 37.8748L101.114 36.5373L103.387 37.3607C103.387 37.3607 103.387 37.3607 103.387 37.3608C103.46 37.3873 103.519 37.4416 103.551 37.5116C103.584 37.5817 103.587 37.6619 103.561 37.7346C103.534 37.8072 103.48 37.8664 103.41 37.899C103.34 37.9316 103.259 37.935 103.187 37.9085Z" fill="white" stroke="#5B5BFF" stroke-width="0.576239"/>
<path d="M103.186 39.6848L103.175 39.6816L103.164 39.6793L100.954 39.2169L103.215 39.1197L103.216 39.1197C103.253 39.118 103.291 39.1238 103.327 39.1367C103.363 39.1496 103.395 39.1694 103.423 39.195C103.451 39.2206 103.474 39.2514 103.49 39.2858C103.506 39.3201 103.515 39.3573 103.517 39.3951C103.519 39.433 103.513 39.4709 103.5 39.5065C103.487 39.5421 103.467 39.5749 103.442 39.6029C103.416 39.6309 103.385 39.6535 103.351 39.6696C103.319 39.6843 103.286 39.6933 103.251 39.696C103.229 39.6948 103.207 39.691 103.186 39.6848Z" fill="white" stroke="#5B5BFF" stroke-width="0.576239"/>
<path d="M103.008 38.6038L101.558 37.9747L103.145 38.0389L103.145 38.0389C103.221 38.042 103.293 38.0753 103.345 38.1315C103.397 38.1878 103.425 38.2623 103.422 38.3388C103.419 38.4153 103.385 38.4874 103.329 38.5393C103.273 38.5912 103.198 38.6187 103.122 38.6156L103.112 38.6153L103.103 38.6155C103.071 38.6163 103.039 38.6124 103.008 38.6038Z" fill="white" stroke="#5B5BFF" stroke-width="0.576239"/>
<path d="M109.059 39.0263C109.059 39.0263 117.317 32.4053 117.553 31.0569C117.789 29.7085 113.283 26.4067 112.01 26.9944C110.736 27.5822 108.149 37.3667 108.149 37.3667L109.059 39.0263Z" fill="white" stroke="#5B5BFF" stroke-width="1.15248" stroke-miterlimit="10"/>
<path d="M109.095 35.5615L110.225 33.5159L109.6 35.7863L109.592 35.8157L109.591 35.8462C109.588 35.889 109.576 35.9307 109.556 35.9682C109.535 36.0058 109.506 36.0383 109.471 36.0634C109.437 36.0884 109.397 36.1054 109.355 36.1131C109.313 36.1208 109.269 36.119 109.228 36.1079C109.186 36.0967 109.148 36.0765 109.116 36.0486C109.083 36.0208 109.057 35.986 109.04 35.9469C109.022 35.9077 109.014 35.8652 109.015 35.8223C109.016 35.7795 109.027 35.7375 109.046 35.6993L109.063 35.6649L109.071 35.6271C109.076 35.6043 109.084 35.5822 109.095 35.5615Z" fill="white" stroke="#5B5BFF" stroke-width="0.576239"/>
<path d="M110.324 36.794L110.339 36.7846L110.353 36.7734L112.129 35.3693L110.747 37.1792L110.747 37.1792L110.746 37.1801C110.699 37.2422 110.629 37.2831 110.552 37.2937C110.475 37.3044 110.396 37.2839 110.334 37.2368L110.16 37.4665L110.334 37.2368C110.272 37.1897 110.231 37.1199 110.221 37.0427C110.211 36.97 110.228 36.8963 110.269 36.8361C110.286 36.82 110.304 36.8059 110.324 36.794Z" fill="white" stroke="#5B5BFF" stroke-width="0.576239"/>
<path d="M109.073 37.581L109.089 37.5653L109.103 37.5473L110.519 35.6892L109.572 37.8443C109.572 37.8444 109.572 37.8444 109.572 37.8445C109.557 37.8794 109.535 37.911 109.507 37.9374C109.48 37.9638 109.447 37.9845 109.411 37.9984C109.376 38.0122 109.338 38.0189 109.3 38.0181C109.261 38.0172 109.224 38.0089 109.189 37.9935L109.073 38.2572L109.189 37.9935C109.154 37.9781 109.122 37.9559 109.096 37.9283C109.069 37.9007 109.048 37.8681 109.035 37.8325C109.021 37.7969 109.014 37.7589 109.015 37.7206C109.016 37.689 109.021 37.6577 109.032 37.6281C109.044 37.6111 109.058 37.5954 109.073 37.581Z" fill="white" stroke="#5B5BFF" stroke-width="0.576239"/>
<path d="M108.361 39.9885C108.361 39.9885 111.127 29.766 110.505 28.5559C109.883 27.3458 104.316 27.3228 103.631 28.5559C102.945 29.7891 106.667 39.2221 106.667 39.2221L108.361 39.9885Z" fill="white" stroke="#5B5BFF" stroke-width="1.15248" stroke-miterlimit="10"/>
<path d="M106.399 37.2595L106.387 37.2277L106.367 37.1995C106.358 37.1855 106.349 37.1707 106.342 37.1554L106.048 34.7396L106.944 37.0507C106.944 37.0508 106.944 37.051 106.944 37.0512C106.958 37.0868 106.964 37.1248 106.963 37.163C106.962 37.2013 106.954 37.239 106.938 37.274C106.922 37.309 106.9 37.3406 106.872 37.367C106.844 37.3934 106.812 37.414 106.776 37.4277C106.74 37.4414 106.702 37.4479 106.664 37.4469C106.625 37.4459 106.587 37.4373 106.552 37.4217C106.517 37.4061 106.486 37.3837 106.46 37.3559C106.433 37.328 106.413 37.2953 106.399 37.2595Z" fill="white" stroke="#5B5BFF" stroke-width="0.576239"/>
<path d="M108.082 37.4129L108.69 35.2054L108.655 37.5079L108.655 37.5079V37.5123C108.655 37.5887 108.625 37.662 108.571 37.716C108.517 37.7701 108.443 37.8004 108.367 37.8004C108.291 37.8004 108.217 37.7701 108.163 37.716L107.962 37.9177L108.163 37.716C108.109 37.662 108.079 37.5887 108.079 37.5123V37.5012L108.078 37.4901C108.076 37.4643 108.078 37.4383 108.082 37.4129Z" fill="white" stroke="#5B5BFF" stroke-width="0.576239"/>
<path d="M107.15 37.2957C107.101 37.247 107.072 37.1825 107.066 37.1142L107.354 35.5802L107.641 37.1142C107.636 37.1825 107.606 37.247 107.557 37.2957C107.503 37.3498 107.43 37.3801 107.354 37.3801C107.277 37.3801 107.204 37.3498 107.15 37.2957Z" fill="white" stroke="#5B5BFF" stroke-width="0.576239"/>
<path d="M108.309 39.3218C108.309 39.3218 118.888 39.7309 119.931 38.855C120.974 37.9791 119.753 32.5509 118.393 32.1591C117.033 31.7673 108.677 37.5008 108.677 37.5008L108.309 39.3218Z" fill="white" stroke="#5B5BFF" stroke-width="1.15248" stroke-miterlimit="10"/>
<path d="M110.564 36.738L110.572 36.7356L110.58 36.7326L112.819 35.9194L110.817 37.2536L110.817 37.254C110.785 37.2753 110.749 37.2902 110.712 37.2977C110.674 37.3052 110.636 37.3053 110.598 37.2979C110.561 37.2905 110.525 37.2758 110.493 37.2546C110.461 37.2334 110.434 37.2061 110.413 37.1744C110.391 37.1426 110.376 37.107 110.369 37.0695C110.361 37.032 110.361 36.9933 110.369 36.9558C110.376 36.9183 110.391 36.8826 110.412 36.8508C110.433 36.8195 110.459 36.7926 110.49 36.7715C110.513 36.757 110.538 36.7457 110.564 36.738Z" fill="white" stroke="#5B5BFF" stroke-width="0.576239"/>
<path d="M110.715 38.4711L110.731 38.4737L110.748 38.4744L113.043 38.573L110.799 39.0513C110.799 39.0513 110.799 39.0514 110.799 39.0514C110.76 39.0594 110.72 39.0598 110.682 39.0525C110.643 39.0453 110.606 39.0304 110.573 39.0088C110.54 38.9872 110.511 38.9593 110.489 38.9267C110.467 38.8941 110.451 38.8575 110.443 38.8188C110.435 38.7802 110.434 38.7403 110.442 38.7015C110.449 38.6627 110.464 38.6257 110.485 38.5926C110.507 38.5596 110.535 38.5311 110.568 38.5088C110.595 38.49 110.625 38.476 110.657 38.4671C110.677 38.4668 110.696 38.4681 110.715 38.4711Z" fill="white" stroke="#5B5BFF" stroke-width="0.576239"/>
<path d="M110.783 37.4185L110.783 37.4186L110.791 37.4183L112.378 37.354L110.913 37.9897C110.913 37.9897 110.913 37.9897 110.913 37.9897C110.877 38.0053 110.838 38.0137 110.799 38.0143C110.76 38.0149 110.721 38.0078 110.684 37.9934C110.648 37.979 110.614 37.9575 110.586 37.9301L110.387 38.1359L110.586 37.9301C110.558 37.9028 110.535 37.8702 110.52 37.8342C110.504 37.7981 110.496 37.7594 110.495 37.7201C110.495 37.6809 110.502 37.6419 110.516 37.6053C110.531 37.5688 110.552 37.5355 110.579 37.5073C110.606 37.4793 110.639 37.4569 110.675 37.4413C110.709 37.4267 110.746 37.419 110.783 37.4185Z" fill="white" stroke="#5B5BFF" stroke-width="0.576239"/>
<path d="M107.067 39.9597C108.655 39.9597 109.942 39.1806 109.942 38.2195C109.942 37.2584 108.655 36.4792 107.067 36.4792C105.479 36.4792 104.191 37.2584 104.191 38.2195C104.191 39.1806 105.479 39.9597 107.067 39.9597Z" fill="white" stroke="#5B5BFF" stroke-width="1.15248" stroke-miterlimit="10"/>
<path d="M109.153 28.9247C108.577 28.3485 107.557 28.2966 106.802 28.2966C106.225 28.2966 105.206 28.2966 104.883 28.8729" stroke="#5B5BFF" stroke-width="0.576239"/>
<path d="M114.964 28.8392L114.964 28.8393L114.967 28.8413C115.192 29.0032 115.569 29.2928 115.838 29.6133C115.973 29.774 116.065 29.9252 116.106 30.0567C116.138 30.1603 116.136 30.2414 116.105 30.3125C116.064 30.275 116.03 30.2237 115.99 30.1461C115.98 30.1261 115.968 30.1018 115.955 30.0745C115.909 29.9802 115.847 29.8501 115.766 29.7398L115.766 29.7398L115.765 29.7387C115.469 29.3377 115.105 28.9909 114.691 28.7138L114.679 28.7062L114.667 28.6997C114.263 28.4822 113.852 28.278 113.435 28.0872C113.562 28.1161 113.696 28.1579 113.835 28.2116C114.271 28.3795 114.692 28.6374 114.964 28.8392Z" fill="white" stroke="#5B5BFF" stroke-width="0.576239"/>
<mask id="path-278-inside-1" fill="white">
<path d="M118.701 33.5173C118.561 33.3292 118.372 33.1834 118.154 33.0959C117.937 33.0085 117.699 32.9828 117.468 33.0218C117.44 33.0305 117.415 33.0462 117.395 33.0673C117.375 33.0883 117.36 33.1142 117.353 33.1423C117.345 33.1705 117.345 33.2001 117.352 33.2284C117.359 33.2567 117.373 33.2828 117.393 33.3041C117.595 33.5519 117.865 33.7478 118.073 34.0014C118.273 34.2855 118.409 34.61 118.471 34.9522C118.494 35.0282 118.542 35.0946 118.606 35.1417C118.671 35.1888 118.748 35.2143 118.828 35.2143C118.907 35.2143 118.985 35.1888 119.049 35.1417C119.114 35.0946 119.161 35.0282 119.185 34.9522C119.219 34.692 119.192 34.4275 119.109 34.1789C119.025 33.9303 118.885 33.7041 118.701 33.5173Z"/>
</mask>
<path d="M118.701 33.5173C118.561 33.3292 118.372 33.1834 118.154 33.0959C117.937 33.0085 117.699 32.9828 117.468 33.0218C117.44 33.0305 117.415 33.0462 117.395 33.0673C117.375 33.0883 117.36 33.1142 117.353 33.1423C117.345 33.1705 117.345 33.2001 117.352 33.2284C117.359 33.2567 117.373 33.2828 117.393 33.3041C117.595 33.5519 117.865 33.7478 118.073 34.0014C118.273 34.2855 118.409 34.61 118.471 34.9522C118.494 35.0282 118.542 35.0946 118.606 35.1417C118.671 35.1888 118.748 35.2143 118.828 35.2143C118.907 35.2143 118.985 35.1888 119.049 35.1417C119.114 35.0946 119.161 35.0282 119.185 34.9522C119.219 34.692 119.192 34.4275 119.109 34.1789C119.025 33.9303 118.885 33.7041 118.701 33.5173Z" fill="white"/>
<path d="M117.468 33.0218L117.372 32.4535L117.333 32.4602L117.295 32.4721L117.468 33.0218ZM117.393 33.3041L117.84 32.9404L117.828 32.9261L117.816 32.9126L117.393 33.3041ZM118.073 34.0014L118.544 33.6692L118.532 33.6524L118.519 33.6365L118.073 34.0014ZM118.471 34.9522L117.903 35.0541L117.91 35.0902L117.921 35.1252L118.471 34.9522ZM118.828 35.2143V35.7905V35.2143ZM119.185 34.9522L119.735 35.1252L119.75 35.0764L119.757 35.0257L119.185 34.9522ZM119.163 33.1733C118.96 32.9001 118.685 32.6883 118.369 32.5613L117.939 33.6306C118.058 33.6785 118.162 33.7583 118.239 33.8613L119.163 33.1733ZM118.369 32.5613C118.053 32.4343 117.708 32.397 117.372 32.4535L117.564 33.59C117.69 33.5687 117.82 33.5827 117.939 33.6306L118.369 32.5613ZM117.295 32.4721C117.174 32.5101 117.065 32.5779 116.978 32.6692L117.811 33.4653C117.764 33.5145 117.706 33.551 117.641 33.5714L117.295 32.4721ZM116.978 32.6692C116.891 32.7606 116.828 32.8725 116.796 32.9946L117.91 33.2901C117.892 33.3559 117.858 33.4161 117.811 33.4653L116.978 32.6692ZM116.796 32.9946C116.763 33.1167 116.762 33.245 116.793 33.3676L117.911 33.0893C117.928 33.1553 117.927 33.2244 117.91 33.2901L116.796 32.9946ZM116.793 33.3676C116.823 33.4901 116.884 33.603 116.97 33.6957L117.816 32.9126C117.862 32.9625 117.895 33.0233 117.911 33.0893L116.793 33.3676ZM116.946 33.6679C117.075 33.8268 117.223 33.9638 117.336 34.0706C117.46 34.1865 117.551 34.2736 117.627 34.3663L118.519 33.6365C118.387 33.4756 118.24 33.338 118.125 33.2306C118.001 33.1141 117.912 33.0293 117.84 32.9404L116.946 33.6679ZM117.602 34.3335C117.754 34.5488 117.857 34.7948 117.903 35.0541L119.038 34.8502C118.961 34.4252 118.793 34.0221 118.544 33.6692L117.602 34.3335ZM117.921 35.1252C117.982 35.3182 118.102 35.4867 118.265 35.6063L118.947 34.6771C118.982 34.7025 119.007 34.7382 119.02 34.7791L117.921 35.1252ZM118.265 35.6063C118.429 35.726 118.626 35.7905 118.828 35.7905V34.638C118.871 34.638 118.912 34.6517 118.947 34.6771L118.265 35.6063ZM118.828 35.7905C119.03 35.7905 119.227 35.726 119.39 35.6063L118.709 34.6771C118.743 34.6517 118.785 34.638 118.828 34.638V35.7905ZM119.39 35.6063C119.553 35.4867 119.674 35.3182 119.735 35.1252L118.635 34.7791C118.648 34.7382 118.674 34.7025 118.709 34.6771L119.39 35.6063ZM119.757 35.0257C119.801 34.6788 119.766 34.3262 119.655 33.9947L118.563 34.3631C118.618 34.5289 118.636 34.7052 118.614 34.8786L119.757 35.0257ZM119.655 33.9947C119.543 33.6633 119.357 33.3616 119.111 33.1126L118.291 33.9221C118.414 34.0466 118.507 34.1974 118.563 34.3631L119.655 33.9947Z" fill="#5B5BFF" mask="url(#path-278-inside-1)"/>
<path d="M101.71 28.3371L101.71 28.3377C101.711 28.3474 101.712 28.3574 101.711 28.3669C101.655 28.3468 101.61 28.32 101.545 28.2811C101.52 28.266 101.491 28.2491 101.458 28.23C101.339 28.1617 101.18 28.0838 100.964 28.0838H100.94L100.916 28.0878C100.597 28.1419 100.29 28.2508 100.008 28.4095C99.9307 28.4458 99.8517 28.488 99.7789 28.527C99.7699 28.5318 99.7611 28.5365 99.7523 28.5412C99.7259 28.5553 99.7001 28.569 99.6747 28.5823C99.9362 28.378 100.229 28.2152 100.544 28.101L100.544 28.1011L100.551 28.0984C100.751 28.0197 101.061 27.9715 101.317 28.0149C101.443 28.0362 101.536 28.0762 101.598 28.1266C101.654 28.172 101.696 28.2347 101.71 28.3371ZM101.995 28.297C101.897 27.5997 100.929 27.6401 100.445 27.8302L100.14 28.6658C100.395 28.5205 100.674 28.421 100.964 28.3719C101.135 28.3719 101.256 28.444 101.38 28.5187C101.461 28.5672 101.544 28.6167 101.644 28.6485C101.897 28.7292 102.024 28.4987 101.995 28.297Z" fill="white" stroke="#5B5BFF" stroke-width="0.576239"/>
<path d="M95.7228 34.1626L95.7241 34.1626C95.7691 34.1641 95.7874 34.1795 95.7992 34.1941C95.816 34.215 95.8305 34.2519 95.8302 34.2969C95.8299 34.3426 95.8147 34.3703 95.8062 34.3798C95.8029 34.3835 95.8004 34.385 95.7975 34.3861C95.7946 34.3872 95.7835 34.3908 95.7597 34.3887L95.7572 34.3885C95.5092 34.3681 95.3003 34.4372 95.1332 34.5752C94.9766 34.7044 94.8739 34.88 94.7979 35.0447C94.7262 35.2 94.6586 35.3609 94.5933 35.5211C94.5993 35.2707 94.6675 35.0061 94.7935 34.7731C95.0019 34.3879 95.3324 34.1478 95.7228 34.1626Z" fill="white" stroke="#5B5BFF" stroke-width="0.576239"/>
<path d="M128.628 39.2571H85.0469V45.3998H128.628V39.2571Z" fill="white" stroke="#5B5BFF" stroke-width="1.15248" stroke-linecap="round" stroke-linejoin="round"/>
<g style="mix-blend-mode:soft-light">
<path d="M85.335 41.2163V39.5452H128.34V41.2163H85.335Z" fill="white"/>
<path d="M85.335 41.2163V39.5452H128.34V41.2163H85.335Z" stroke="#5B5BFF" stroke-width="0.576239"/>
</g>
<path d="M110.963 45.3977H102.723V59.9996H110.963V45.3977Z" fill="white" stroke="#5B5BFF" stroke-width="1.15248" stroke-miterlimit="10"/>
<path d="M111.858 39.2571H101.819V45.3998H111.858V39.2571Z" fill="white" stroke="#5B5BFF" stroke-width="1.15248" stroke-miterlimit="10"/>
</svg>
