<svg width="118" height="25" viewBox="0 0 118 25" fill="none" xmlns="http://www.w3.org/2000/svg">
<path fill-rule="evenodd" clip-rule="evenodd" d="M115.534 13.6648L118 19.9211H115.671L113.205 13.518C113.205 13.518 113.205 13.1032 113.205 12.2767H115.396V7.91444H112.578V19.9211H110.346V6.14749H116.445C117.234 6.15048 117.629 6.5137 117.629 7.23835V12.5746C117.629 13.0733 117.417 13.4011 116.989 13.551C116.757 13.6259 116.275 13.6648 115.534 13.6648ZM106.429 17.3072H103.626L103.178 19.9211H100.967V19.8852L103.863 6.12891H106.216L109.091 19.9211H106.878L106.429 17.3072ZM105.019 9.32357L103.923 15.5403H106.112L105.019 9.32357ZM97.9098 19.9211H95.6786V7.96839H93.2116V6.14749H100.376V7.96839H97.9098V19.9211ZM90.9113 19.9211H86.0769C85.2873 19.9181 84.8925 19.5543 84.8925 18.8303V15.3958H87.1236V18.1901H89.8646V15.4857L85.3784 11.5772C85.0553 11.2883 84.8925 10.9221 84.8925 10.4768V7.23835C84.8925 6.5137 85.2873 6.15048 86.0769 6.14749H90.9113C91.7009 6.15048 92.0957 6.50771 92.0957 7.21977V10.4738H89.8646V7.87788H87.1236V10.3755L91.6098 14.2666C91.9323 14.5483 92.0957 14.9211 92.0957 15.3838V18.8303C92.0957 19.5543 91.7009 19.9181 90.9113 19.9211ZM81.3522 19.9211H80.0212V7.22936H77.6918V6.14749H83.6622V7.22936H81.3522V19.9211ZM71.2122 9.79228V19.9211H69.9594V6.14749H70.9551L74.8727 16.1019V6.14749H76.1255V19.9211H75.2087L71.2122 9.79228ZM62.9713 6.14749H67.8258V7.22936H64.3023V12.3672H67.5124V13.467H64.3023V18.8392H67.8846V19.9211H62.9713V6.14749ZM59.5131 19.9211H55.8397C55.516 19.9211 55.2485 19.8246 55.043 19.6358C54.8343 19.4464 54.7303 19.2001 54.7303 18.8998V15.4498H56.0614V18.8392H59.2915V15.5493L55.1606 10.9641C54.8738 10.6488 54.7303 10.3 54.7303 9.92175V7.16882C54.7303 6.86853 54.8343 6.62219 55.043 6.43279C55.2485 6.24339 55.516 6.14749 55.8397 6.14749H59.5131C59.842 6.14749 60.1101 6.24339 60.3156 6.43279C60.5211 6.62219 60.6225 6.86853 60.6225 7.16882V10.3299H59.2915V7.22936H56.0614V10.1405L60.2116 14.7227C60.4849 15.029 60.6225 15.3719 60.6225 15.7507V18.8998C60.6225 19.2001 60.5211 19.4464 60.3156 19.6358C60.1101 19.8246 59.842 19.9211 59.5131 19.9211ZM47.801 6.14749H52.6549V7.22936H49.1314V12.3672H52.3421V13.467H49.1314V18.8392H52.7137V19.9211H47.801V6.14749ZM44.4172 19.9211L41.6374 12.5416L41.8203 12.2947H44.1826V7.22936H40.7761V19.9211H39.445V6.14749H44.4042C44.7299 6.14749 44.998 6.24339 45.2035 6.43279C45.409 6.62219 45.513 6.86853 45.513 7.16882V12.3192C45.513 13.0013 45.0303 13.3406 44.0611 13.3406C43.9674 13.3406 43.8266 13.3376 43.6405 13.3286C43.4583 13.3196 43.3239 13.3136 43.2399 13.3136C44.1005 15.5103 44.9554 17.713 45.807 19.9211H44.4172ZM36.2382 14.4578H32.7471V19.9211H31.416V6.14749H36.2382C36.5606 6.14749 36.8281 6.24339 37.0336 6.43279C37.243 6.62219 37.347 6.86853 37.347 7.16882V13.4371C37.347 13.7344 37.243 13.9807 37.0336 14.1701C36.8281 14.3625 36.5606 14.4578 36.2382 14.4578ZM36.0166 7.22936H32.7471V13.3592H36.0166V7.22936Z" fill="#1A1A1A"/>
<path d="M5.2156 8.97369L0 17.3122V6.20256L5.2156 8.97369Z" fill="#5B5BFF"/>
<path d="M11.1109 12.1063L0.670954 17.6549L5.88009 9.32662L11.1109 12.1063Z" fill="#5B5BFF"/>
<path d="M7.12034 5.92839L5.59868 8.36105L1.01891 5.92796C2.03602 5.92796 3.05302 5.92807 4.06997 5.92818C5.0868 5.92828 6.10357 5.92839 7.12034 5.92839Z" fill="#5B5BFF"/>
<path d="M7.56302 5.22039H1.05587L10.8281 0L7.56302 5.22039Z" fill="#5B5BFF"/>
<path d="M8.44792 5.22039L11.4926 0.352936V5.22081C10.985 5.22081 10.4776 5.22071 9.97027 5.2206C9.4629 5.2205 8.95552 5.22039 8.44792 5.22039Z" fill="#5B5BFF"/>
<path d="M8.00524 5.92839H11.4926C11.4926 6.85612 11.493 7.78386 11.4933 8.71154C11.4937 9.63911 11.494 10.5666 11.494 11.4941L6.26316 8.71441L8.00524 5.92839Z" fill="#5B5BFF"/>
<path d="M0.420501 18.6039L11.494 12.7185L11.4945 24.5195L0.420501 18.6039Z" fill="#5B5BFF"/>
<path d="M23.336 18.6022L12.2592 24.5195V12.7159C14.1062 13.6975 15.9534 14.679 17.8005 15.6606C19.6457 16.6411 21.4909 17.6216 23.336 18.6022Z" fill="#5B5BFF"/>
<path d="M17.875 9.32705L23.0832 17.6519L12.646 12.1063L17.875 9.32705Z" fill="#5B5BFF"/>
<path d="M15.7489 5.92839L17.4919 8.71484L12.2592 11.4962C12.2592 10.568 12.2595 9.63997 12.2597 8.71197C12.2599 7.78407 12.2602 6.85623 12.2602 5.92839H15.7489Z" fill="#5B5BFF"/>
<path d="M15.3063 5.22081H12.2602V0.351659L15.3063 5.22081Z" fill="#5B5BFF"/>
<path d="M16.1916 5.22081L12.9256 0L22.6992 5.22081H16.1916Z" fill="#5B5BFF"/>
<path d="M18.1564 8.3619L16.6343 5.92839L22.7339 5.92881L18.1564 8.3619Z" fill="#5B5BFF"/>
<path d="M18.5395 8.97369L23.7532 6.20299V17.3083L18.5395 8.97369Z" fill="#5B5BFF"/>
</svg>
