<svg width="30" height="28" viewBox="0 0 30 28" fill="none" xmlns="http://www.w3.org/2000/svg">
<path d="M14.2652 0.706192C14.5429 0.061421 15.4571 0.0614231 15.7348 0.706194L19.1382 8.60935C19.254 8.87829 19.5075 9.06246 19.7991 9.0895L28.3672 9.88417C29.0662 9.949 29.3487 10.8184 28.8213 11.2818L22.3567 16.9609C22.1367 17.1541 22.0398 17.4521 22.1042 17.7378L23.9961 26.1321C24.1505 26.8169 23.4109 27.3542 22.8073 26.9958L15.4084 22.6025C15.1567 22.453 14.8433 22.453 14.5916 22.6025L7.19275 26.9958C6.58913 27.3542 5.84953 26.8169 6.00388 26.132L7.89578 17.7378C7.96016 17.4521 7.86334 17.1541 7.64335 16.9609L1.17873 11.2818C0.651317 10.8184 0.93382 9.949 1.63284 9.88417L10.2009 9.0895C10.4925 9.06246 10.746 8.87829 10.8618 8.60935L14.2652 0.706192Z" fill="#FFB745"/>
</svg>
