<svg width="20" height="21" viewBox="0 0 20 21" fill="none" xmlns="http://www.w3.org/2000/svg">
<g opacity="0.4">
<path fill-rule="evenodd" clip-rule="evenodd" d="M14.9026 4.20668C15.2927 3.81652 15.9253 3.81652 16.3155 4.20668C16.7057 4.59685 16.7057 5.22943 16.3155 5.61959L11.424 10.511L16.3156 15.4026C16.7058 15.7927 16.7058 16.4253 16.3156 16.8155C15.9254 17.2057 15.2929 17.2057 14.9027 16.8155L10.0111 11.9239L5.11959 16.8155C4.72943 17.2057 4.09685 17.2057 3.70668 16.8155C3.31652 16.4253 3.31652 15.7927 3.70668 15.4026L8.59823 10.511L3.70679 5.61959C3.31663 5.22943 3.31663 4.59685 3.70679 4.20668C4.09695 3.81652 4.72953 3.81652 5.11969 4.20668L10.0111 9.09813L14.9026 4.20668Z" fill="white"/>
</g>
</svg>
